<svg xmlns="http://www.w3.org/2000/svg" id="Layer_1" enable-background="new 0 0 512 512" viewBox="0 0 512 512"><path fill="#b3b5b7" d="M361,26H151c-12.7,0-23,10.4-23,23.1V252h256V49.1C384,36.4,373.7,26,361,26z M279,59h-45
		c-5.5,0-10-4.5-10-10c0-5.5,4.5-10,10-10h45c5.5,0,10,4.5,10,10C289,54.5,284.5,59,279,59z"/><path fill="#86888a" d="M128,462.9c0,12.8,10.3,23.1,23,23.1h210c12.7,0,23-10.4,23-23.1V272H128V462.9z M282,471h-51
		c-5.5,0-10-4.5-10-10c0-5.5,4.5-10,10-10h51c5.5,0,10,4.5,10,10C292,466.5,287.5,471,282,471z M282,436h-51c-5.5,0-10-4.5-10-10
		c0-5.5,4.5-10,10-10h51c5.5,0,10,4.5,10,10C292,431.5,287.5,436,282,436z M282,402h-51c-5.5,0-10-4.5-10-10c0-5.5,4.5-10,10-10h51
		c5.5,0,10,4.5,10,10C292,397.5,287.5,402,282,402z M327,302h29c5.5,0,10,4.5,10,10c0,5.5-4.5,10-10,10h-29c-5.5,0-10-4.5-10-10
		C317,306.5,321.5,302,327,302z M327,337h29c5.5,0,10,4.5,10,10c0,5.5-4.5,10-10,10h-29c-5.5,0-10-4.5-10-10
		C317,341.5,321.5,337,327,337z M313,381h51c5.5,0,10,4.5,10,10c0,5.5-4.5,10-10,10h-51c-5.5,0-10-4.5-10-10
		C303,385.5,307.5,381,313,381z M313,415h51c5.5,0,10,4.5,10,10c0,5.5-4.5,10-10,10h-51c-5.5,0-10-4.5-10-10
		C303,419.5,307.5,415,313,415z M313,450h51c5.5,0,10,4.5,10,10c0,5.5-4.5,10-10,10h-51c-5.5,0-10-4.5-10-10
		C303,454.5,307.5,450,313,450z M212.5,314.5c0-11.7,9.5-21.3,21.3-21.3h44.8c11.7,0,21.3,9.5,21.3,21.3v31
		c0,11.7-9.5,21.3-21.3,21.3h-44.8c-11.7,0-21.3-9.5-21.3-21.3V314.5z M155,302h29c5.5,0,10,4.5,10,10c0,5.5-4.5,10-10,10h-29
		c-5.5,0-10-4.5-10-10C145,306.5,149.5,302,155,302z M155,337h29c5.5,0,10,4.5,10,10c0,5.5-4.5,10-10,10h-29c-5.5,0-10-4.5-10-10
		C145,341.5,149.5,337,155,337z M148,381h51c5.5,0,10,4.5,10,10c0,5.5-4.5,10-10,10h-51c-5.5,0-10-4.5-10-10
		C138,385.5,142.5,381,148,381z M148,415h51c5.5,0,10,4.5,10,10c0,5.5-4.5,10-10,10h-51c-5.5,0-10-4.5-10-10
		C138,419.5,142.5,415,148,415z M148,450h51c5.5,0,10,4.5,10,10c0,5.5-4.5,10-10,10h-51c-5.5,0-10-4.5-10-10
		C138,454.5,142.5,450,148,450z"/><path fill="#3a3c3e" d="M233.7,346.8h44.8c0.7,0,1.3-0.6,1.3-1.3v-31c0-0.7-0.6-1.3-1.3-1.3h-44.8c-0.7,0-1.3,0.6-1.3,1.3v31
		C232.5,346.2,233,346.8,233.7,346.8z"/><path d="M361,6H151c-23.7,0-43,19.4-43,43.1V252v20v190.8c0,23.8,19.3,43.1,43,43.1h210c23.7,0,43-19.4,43-43.1V272v-20V49.1
		C404,25.4,384.7,6,361,6z M384,462.9c0,12.8-10.3,23.1-23,23.1H151c-12.7,0-23-10.4-23-23.1V272h256V462.9z M128,252V49.1
		c0-12.8,10.3-23.1,23-23.1h210c12.7,0,23,10.4,23,23.1V252H128z"/><path d="M279 39h-45c-5.5 0-10 4.5-10 10 0 5.5 4.5 10 10 10h45c5.5 0 10-4.5 10-10C289 43.5 284.5 39 279 39zM233.7 366.8h44.8c11.7 0 21.3-9.5 21.3-21.3v-31c0-11.7-9.5-21.3-21.3-21.3h-44.8c-11.7 0-21.3 9.5-21.3 21.3v31C212.5 357.2 222 366.8 233.7 366.8zM232.5 314.5c0-.7.6-1.3 1.3-1.3h44.8c.7 0 1.3.6 1.3 1.3v31c0 .7-.6 1.3-1.3 1.3h-44.8c-.7 0-1.3-.6-1.3-1.3V314.5zM327 322h29c5.5 0 10-4.5 10-10 0-5.5-4.5-10-10-10h-29c-5.5 0-10 4.5-10 10C317 317.5 321.5 322 327 322zM327 357h29c5.5 0 10-4.5 10-10 0-5.5-4.5-10-10-10h-29c-5.5 0-10 4.5-10 10C317 352.5 321.5 357 327 357zM155 322h29c5.5 0 10-4.5 10-10 0-5.5-4.5-10-10-10h-29c-5.5 0-10 4.5-10 10C145 317.5 149.5 322 155 322zM155 357h29c5.5 0 10-4.5 10-10 0-5.5-4.5-10-10-10h-29c-5.5 0-10 4.5-10 10C145 352.5 149.5 357 155 357zM282 382h-51c-5.5 0-10 4.5-10 10 0 5.5 4.5 10 10 10h51c5.5 0 10-4.5 10-10C292 386.5 287.5 382 282 382zM282 416h-51c-5.5 0-10 4.5-10 10 0 5.5 4.5 10 10 10h51c5.5 0 10-4.5 10-10C292 420.5 287.5 416 282 416zM282 451h-51c-5.5 0-10 4.5-10 10 0 5.5 4.5 10 10 10h51c5.5 0 10-4.5 10-10C292 455.5 287.5 451 282 451zM148 401h51c5.5 0 10-4.5 10-10 0-5.5-4.5-10-10-10h-51c-5.5 0-10 4.5-10 10C138 396.5 142.5 401 148 401zM148 435h51c5.5 0 10-4.5 10-10 0-5.5-4.5-10-10-10h-51c-5.5 0-10 4.5-10 10C138 430.5 142.5 435 148 435zM148 470h51c5.5 0 10-4.5 10-10 0-5.5-4.5-10-10-10h-51c-5.5 0-10 4.5-10 10C138 465.5 142.5 470 148 470zM313 401h51c5.5 0 10-4.5 10-10 0-5.5-4.5-10-10-10h-51c-5.5 0-10 4.5-10 10C303 396.5 307.5 401 313 401zM313 435h51c5.5 0 10-4.5 10-10 0-5.5-4.5-10-10-10h-51c-5.5 0-10 4.5-10 10C303 430.5 307.5 435 313 435zM313 470h51c5.5 0 10-4.5 10-10 0-5.5-4.5-10-10-10h-51c-5.5 0-10 4.5-10 10C303 465.5 307.5 470 313 470z"/></svg>