<svg xmlns="http://www.w3.org/2000/svg" viewBox="0 0 64 64"><g data-name="Layer 3"><path fill="#7fb3fa" d="M59,36H33a2.006,2.006,0,0,0-2,2v4a2.006,2.006,0,0,0,2,2h1l1.62,15.42A4.007,4.007,0,0,0,39.6,63H52.4a4.007,4.007,0,0,0,3.98-3.58L58,44h1a2.006,2.006,0,0,0,2-2V38A2.006,2.006,0,0,0,59,36Z"/><path fill="#64a6f4" d="M40.62,59.42,39,44H38a2.006,2.006,0,0,1-2-2V38a2.006,2.006,0,0,1,2-2H33a2.006,2.006,0,0,0-2,2v4a2.006,2.006,0,0,0,2,2h1l1.62,15.42A4.007,4.007,0,0,0,39.6,63h5A4.007,4.007,0,0,1,40.62,59.42Z"/><path fill="#655e67" d="M61,38v4a2.006,2.006,0,0,1-2,2H33a2.006,2.006,0,0,1-2-2V38a2.006,2.006,0,0,1,2-2H59A2.006,2.006,0,0,1,61,38Z"/><path fill="#544f56" d="M39,41H38a2.006,2.006,0,0,1-2-2V36H33a2.006,2.006,0,0,0-2,2v4a2.006,2.006,0,0,0,2,2H59a2.006,2.006,0,0,0,2-2V41Z"/><path fill="#dcdcdc" d="M58 32v4H54V32a8 8 0 0 0-16 0v4H34V32a12 12 0 1 1 24 0zM22 40.05V36a4 4 0 0 0-4-4H12a4 4 0 0 0-4 4v4.05C3 46.09 2 57.16 4 60.18a22.864 22.864 0 0 0 22 0 9.593 9.593 0 0 0 .97-4.87C26.972 50.65 25.422 44.18 22 40.05z"/><path fill="#c7bdc0" d="M12.914,40.314V35.588A4.638,4.638,0,0,1,14.627,32H12a4,4,0,0,0-4,4v4.05C3,46.09,2,57.16,4,60.18a22.937,22.937,0,0,0,3.461,1.529C6.357,56.64,7.925,46.341,12.914,40.314Z"/><path fill="#ff6f7f" d="M22,36v4.05H8V36a4,4,0,0,1,4-4h6A4,4,0,0,1,22,36Z"/><path fill="#ed5c79" d="M14,38a2,2,0,0,1-2-2V33.95A3.957,3.957,0,0,1,12.527,32H12a4,4,0,0,0-4,4v4.05H22V38Z"/><path fill="#f8e883" d="M18,4V32H12V4a3,3,0,0,1,6,0Z"/><path fill="#f2cb77" d="M15,27V1a3,3,0,0,0-3,3V32h6V29H17A2,2,0,0,1,15,27Z"/></g><g data-name="Layer 1"><path d="M62 38a3 3 0 0 0-3-3V32a13 13 0 0 0-26 0v3a3 3 0 0 0-3 3v4a3 3 0 0 0 3 3H54a1 1 0 0 0 0-2H33a1 1 0 0 1-1-1V38a1 1 0 0 1 1-1H59a1 1 0 0 1 1 1v4a1 1 0 0 1-1 1H58a1.038 1.038 0 0 0-.994.894l-1.62 15.419A3 3 0 0 1 52.4 62H39.6a3 3 0 0 1-2.986-2.685L35.414 47.9a1.01 1.01 0 0 0-1.1-.891 1 1 0 0 0-.889 1.1l1.2 11.423A5 5 0 0 0 39.6 64H52.4a5 5 0 0 0 4.974-4.476L58.9 45H59a3 3 0 0 0 3-3zM39 35V32a7 7 0 0 1 14 0v3zm16 0V32a9 9 0 0 0-18 0v3H35V32a11 11 0 0 1 22 0v3zM12 31a5.006 5.006 0 0 0-5 5v3.719C2 46.071.93 57.353 3.166 60.729a1 1 0 0 0 .353.325 23.746 23.746 0 0 0 22.962 0 1 1 0 0 0 .353-.325C29.07 57.353 28.005 46.071 23 39.719V36a5.009 5.009 0 0 0-4-4.9V4a4 4 0 0 0-8 0V28a1 1 0 0 0 2 0V4a2 2 0 0 1 4 0V31zm9 5v3.05H16a1 1 0 0 0 0 2h5.5c4.461 5.745 5.269 15.6 3.782 18.378A22.091 22.091 0 0 1 22 60.842V56a1 1 0 0 0-2 0v5.421a21.721 21.721 0 0 1-4 .561V56a1 1 0 0 0-2 0v5.982a21.721 21.721 0 0 1-4-.561V56a1 1 0 0 0-2 0v4.842a22.091 22.091 0 0 1-3.283-1.414C3.2 56.59 4.062 46.374 8.771 40.688A1.1 1.1 0 0 0 9 40.05V36a3 3 0 0 1 3-3h6A3 3 0 0 1 21 36z"/><circle cx="12" cy="40" r="1"/></g></svg>