<svg xmlns="http://www.w3.org/2000/svg" xmlns:xlink="http://www.w3.org/1999/xlink" viewBox="0 0 64 64"><defs><linearGradient id="b" x1="49" x2="49" y1="15" y2="34.15" gradientUnits="userSpaceOnUse"><stop offset=".25" stop-color="#3fc4ff"/><stop offset="1" stop-color="#1270ff"/></linearGradient><linearGradient id="a" x1="9.23" x2="9.23" y1="30.77" y2="61" gradientTransform="matrix(-1 0 0 1 44.34 0)" gradientUnits="userSpaceOnUse"><stop offset="0" stop-color="#a5ff91"/><stop offset=".48" stop-color="#5ed100"/><stop offset="1" stop-color="#0c7f00"/></linearGradient><linearGradient id="c" x1="3.41" x2="3.41" y1="40.55" y2="61.02" xlink:href="#a"/><linearGradient id="d" x1="-3.12" x2="-3.12" y1="50.76" y2="61.01" xlink:href="#a"/><linearGradient id="e" x1="29.23" x2="29.23" y1="30.77" y2="61" xlink:href="#a"/><linearGradient id="f" x1="16.5" x2="16.5" y1="3" y2="24" xlink:href="#a"/><linearGradient id="g" x1="23.41" x2="23.41" y1="40.55" y2="61.02" xlink:href="#a"/><linearGradient id="h" x1="16.88" x2="16.88" y1="50.76" y2="61.01" xlink:href="#a"/></defs><g data-name="Layer 2"><path fill="url(#b)" d="M60.6,23.2l-11-8a1,1,0,0,0-1.2,0l-11,8a1,1,0,1,0,1.2,1.6L41,23.1V33.2a1,1,0,0,0,.3.7l.7.3h.1l14-1.5a1,1,0,0,0,.9-1V23.1l2.4,1.8.6.2a1,1,0,0,0,.6-1.8ZM52,31.1a.5.5,0,0,1-.5.5l-5,.4a.5.5,0,0,1-.5-.5v-5a.5.5,0,0,1,.5-.5h5a.5.5,0,0,1,.5.5Z"/><path fill="url(#a)" d="M9,59.6A50.4,50.4,0,0,1,60.5,31.1a1,1,0,0,1,.9,1L61,60a1,1,0,0,1-1,1H9.9A1,1,0,0,1,9,59.6Z"/><path fill="url(#c)" d="M20.7,59.4A42.3,42.3,0,0,1,38,44.4h0a42.2,42.2,0,0,1,22.4-3.5,1,1,0,0,1,.9,1V60a1,1,0,0,1-1,1H21.5a1,1,0,0,1-.8-1.6Z"/><path fill="url(#d)" d="M33.9,59.3a29.6,29.6,0,0,1,8.3-5.7A30.3,30.3,0,0,1,55,50.8l4.1.3,1.3.2a1,1,0,0,1,.9,1V60a1,1,0,0,1-1,1H34.6a1,1,0,0,1-.7-1.7Z"/><path fill="url(#e)" d="M55.4,59.6A51.2,51.2,0,0,0,30.9,35.4,51,51,0,0,0,3.9,31.1a1,1,0,0,0-.9,1L3.4,60a1,1,0,0,0,1,1H54.5a1,1,0,0,0,.9-1.4Z"/><path fill="url(#f)" d="M16.5,3A10.5,10.5,0,1,0,27,13.5,10.5,10.5,0,0,0,16.5,3Z"/><path fill="#44290e" d="M21.9,15.6a1,1,0,0,0-1.3-.5L17,16.8V10a1,1,0,0,0-2,0v3.9l-3.7-1.8a1,1,0,1,0-.9,1.8L15,16.1V32a1,1,0,0,0,2,0V19l4.4-2.1A1,1,0,0,0,21.9,15.6Z"/><path fill="url(#g)" d="M43.7,59.4A42.3,42.3,0,0,0,26.4,44.4h0A42.2,42.2,0,0,0,3.9,40.8a1,1,0,0,0-.9,1V60a1,1,0,0,0,1,1H42.8a1,1,0,0,0,.8-1.6Z"/><path fill="url(#h)" d="M30.5,59.3a29.6,29.6,0,0,0-8.3-5.7A30.3,30.3,0,0,0,9.4,50.8L5.2,51l-1.3.2a1,1,0,0,0-.9,1V60a1,1,0,0,0,1,1H29.8a1,1,0,0,0,.7-1.7Z"/></g><g data-name="Layer 3"><path d="M4.1 53.2L5.5 53l3.9-.3a28.3 28.3 0 0 1 12 2.6 27.8 27.8 0 0 1 7.8 5.4 1 1 0 0 0 1.4-1.4 29.8 29.8 0 0 0-8.3-5.8A30.3 30.3 0 0 0 9.4 50.8L5.2 51l-1.3.2a1 1 0 0 0 .3 2zM4.2 42.8a40 40 0 0 1 21.3 3.4A40.3 40.3 0 0 1 42 60.6a1 1 0 0 0 .8.4l.6-.2a1 1 0 0 0 .3-1.4A42.3 42.3 0 0 0 26.4 44.4 42 42 0 0 0 4 40.8a1 1 0 0 0 .2 2z"/><path d="M60,33.1a1,1,0,1,0,.2-2L57,30.8V23.1l2.4,1.8.6.2a1,1,0,0,0,.6-1.8l-11-8a1,1,0,0,0-1.2,0l-11,8a1,1,0,1,0,1.2,1.6L41,23.1v9.6a49.6,49.6,0,0,0-7.6,2.8l-1.4.7-1.4-.7A49.8,49.8,0,0,0,17,31.3V24a10.5,10.5,0,1,0-2-.1v7.2a52.3,52.3,0,0,0-11.5,0,1,1,0,0,0,.2,2,49,49,0,0,1,26,4.1A49.6,49.6,0,0,1,53.3,60.7a1,1,0,0,0,.9.6h.4a1,1,0,0,0,.5-1.3A53.1,53.1,0,0,0,51.1,53a30.2,30.2,0,0,1,7.4,0l1.5.2h.1a1,1,0,0,0,.1-2L58.8,51a32.1,32.1,0,0,0-8.9.1,52.3,52.3,0,0,0-6.2-6.9,40.6,40.6,0,0,1,16.2-1.4,1,1,0,1,0,.2-2,42.5,42.5,0,0,0-18.2,1.8,49.6,49.6,0,0,0-7.8-5.4h.1A49,49,0,0,1,60,33.1Zm-9-2.2-4,.4V27h4Zm-8-9.3,6-4.4,6,4.4v9.2H53V26a1,1,0,0,0-1-1H46a1,1,0,0,0-1,1v5.7l-2,.4ZM8,13.5A8.5,8.5,0,1,1,17,22V19l4.4-2.1a1,1,0,1,0-.9-1.8L17,16.8V10a1,1,0,0,0-2,0v3.9l-3.7-1.8a1,1,0,1,0-.9,1.8L15,16.1v5.8A8.5,8.5,0,0,1,8,13.5Z"/></g></svg>