<svg xmlns="http://www.w3.org/2000/svg" data-name="Layer 1" viewBox="0 0 512 512"><rect width="63" height="98.79" x="317.08" y="249.5" fill="#fedf30"/><rect width="207.11" height="125.5" x="245.02" y="379" fill="#918291" rx="15"/><path fill="#7a6d79" d="M437.13,379h-15a110.5,110.5,0,0,1-110.5,110.5H245a15,15,0,0,0,15,15H437.13a15,15,0,0,0,15-15V394A15,15,0,0,0,437.13,379Z"/><rect width="45.5" height="127.11" x="325.82" y="378.19" fill="#f9f7f8" rx="5" transform="rotate(90 348.57 441.75)"/><path fill="#efedef" d="M412.13,459.5V425a110.84,110.84,0,0,1-30.5,39.51h25.5A5,5,0,0,0,412.13,459.5Z"/><path fill="#918291" d="M303.65,348.29h89.68A30.71,30.71,0,0,1,424,379v0a0,0,0,0,1,0,0H272.94a0,0,0,0,1,0,0v0A30.71,30.71,0,0,1,303.65,348.29Z"/><path fill="#7a6d79" d="M393.33,348.29h-3.61c.11.19.23.39.34.6,3.56,6.9-1.69,15.11-9.46,15.11H276.85a30.55,30.55,0,0,0-3.91,15H424A30.71,30.71,0,0,0,393.33,348.29Z"/><path fill="#fed402" d="M380.08,249.5v29.88a107.46,107.46,0,0,1-13.51.85,106,106,0,0,1-49.49-12.18V249.5Z"/><path fill="#fedf30" d="M348.81,258.29h0a106.5,106.5,0,0,1-106.5-106.5L242.07,15.5a8,8,0,0,1,8-8h197a8,8,0,0,1,8,8l.24,136.29A106.5,106.5,0,0,1,348.81,258.29Z"/><path fill="#fed402" d="M455.07,15.5a8,8,0,0,0-8-8h-22l.22,129.29a106.5,106.5,0,0,1-106.5,106.5h0a106.52,106.52,0,0,1-32-4.89,106.06,106.06,0,0,0,62,19.89h0a106.5,106.5,0,0,0,106.5-106.5Z"/><circle cx="348.57" cy="143" r="72.83" fill="#fedf30"/><path fill="#fedf30" d="M365.26,72.11a72.83,72.83,0,0,1-63.38,126.78A72.83,72.83,0,1,0,365.26,72.11Z"/><rect width="108.15" height="30" x="294.5" y="288.29" fill="#fed402" rx="15"/><path fill="#fac600" d="M387.65,288.29a15,15,0,0,1-15,15H294.5a15,15,0,0,0,15,15h78.15a15,15,0,0,0,0-30Z"/><path fill="#bc7c63" d="M16.5,464.23v-196a15,15,0,0,1,15-15h161a15,15,0,0,1,15,15v196"/><rect width="209.29" height="40.27" x="7.36" y="464.23" fill="#aa6a51" rx="8"/><circle cx="112" cy="358.73" r="66.18" fill="#fedf30"/><path fill="#fed402" d="M125.59,294A66.17,66.17,0,0,1,82,409.91a66.86,66.86,0,0,1-13.59-1.4A66.18,66.18,0,1,0,125.59,294Z"/><path d="M112.07,285.05a73.68,73.68,0,1,0,73.68,73.68A73.76,73.76,0,0,0,112.07,285.05Zm0,132.36a58.68,58.68,0,1,1,58.68-58.68A58.74,58.74,0,0,1,112.07,417.41ZM496.57,19.18H462.65V15.5A15.52,15.52,0,0,0,447.15,0h-197a15.52,15.52,0,0,0-15.5,15.51v3.67H200.72a15.51,15.51,0,0,0-15.5,15.5v84.07a71.89,71.89,0,0,0,55.85,70.1,114.58,114.58,0,0,0,68.58,70v22h-.08a22.5,22.5,0,0,0,0,45h.08v15h-5.93a38.28,38.28,0,0,0-37.47,30.71h-6.16a22.52,22.52,0,0,0-22.5,22.5v95.5a22.52,22.52,0,0,0,22.5,22.5H437.2a22.52,22.52,0,0,0,22.5-22.5V394a22.52,22.52,0,0,0-22.5-22.5h-6.33a38.26,38.26,0,0,0-37.47-30.71h-5.75v-15h.07a22.5,22.5,0,0,0,0-45h-.07V259a114.53,114.53,0,0,0,69.08-70.26,71.65,71.65,0,0,0,55.34-70V34.68A15.51,15.51,0,0,0,496.57,19.18ZM200.22,118.75V34.68a.5.5,0,0,1,.5-.5h34l.2,117.61a114,114,0,0,0,1.78,20.11A56.64,56.64,0,0,1,200.22,118.75Zm237,267.75a7.5,7.5,0,0,1,7.5,7.5v95.5a7.5,7.5,0,0,1-7.5,7.5H260.09a7.5,7.5,0,0,1-7.5-7.5V394a7.5,7.5,0,0,1,7.5-7.5Zm-43.8-30.71a23.23,23.23,0,0,1,22,15.71H281.76a23.25,23.25,0,0,1,22-15.71H393.4Zm-68.75-15v-15h48v15Zm63.07-45a7.5,7.5,0,0,1,0,15H309.57a7.5,7.5,0,0,1,0-15h78.15Zm-63.07-15v-17.6a114.23,114.23,0,0,0,48,.1v17.5Zm24.23-30h0a99.12,99.12,0,0,1-99-99L249.67,27V26.8l0-11.3a.5.5,0,0,1,.5-.5h197a.5.5,0,0,1,.5.51l.23,136.28A99.12,99.12,0,0,1,348.88,250.79Zm148.19-132a56.72,56.72,0,0,1-35.93,52.94,114.67,114.67,0,0,0,1.74-19.92l-.2-117.59h33.89a.5.5,0,0,1,.5.5Zm-358,207.38a7.5,7.5,0,0,0-7.5-7.5h-39a7.5,7.5,0,0,0,0,15h7.1a13.79,13.79,0,0,1,11.51,6.18H92.56a7.5,7.5,0,0,0,0,15h18.61A13.79,13.79,0,0,1,99.66,361h-7.1a7.5,7.5,0,0,0-5.41,12.69l28.38,29.57a7.5,7.5,0,0,0,10.82-10.38l-17.6-18.35a28.81,28.81,0,0,0,18.67-19.71h4.16a7.5,7.5,0,0,0,0-15h-4.15a28.22,28.22,0,0,0-2.48-6.18h6.63A7.5,7.5,0,0,0,139.08,326.13ZM285.09,472H412.2a7.5,7.5,0,0,0,7.5-7.5V419a7.5,7.5,0,0,0-7.5-7.5H285.09a7.5,7.5,0,0,0-7.5,7.5v45.5A7.5,7.5,0,0,0,285.09,472Zm7.5-45.5H404.7V457H292.59Zm-77.52,31.61V268.23a22.52,22.52,0,0,0-22.5-22.5h-161a22.53,22.53,0,0,0-22.5,22.5V458.11A15.51,15.51,0,0,0-.07,472.23V496.5A15.51,15.51,0,0,0,15.43,512H208.72a15.52,15.52,0,0,0,15.5-15.5V472.23A15.52,15.52,0,0,0,215.07,458.11Zm-191-189.88a7.51,7.51,0,0,1,7.5-7.5h161a7.5,7.5,0,0,1,7.5,7.5v188.5h-176ZM209.22,496.5a.5.5,0,0,1-.5.5H15.43a.5.5,0,0,1-.5-.5V472.23a.5.5,0,0,1,.5-.5H208.72a.5.5,0,0,1,.5.5ZM379,102.88a7.5,7.5,0,0,0-7.5-7.5H325.8a7.5,7.5,0,0,0,0,15h8.31a17.43,17.43,0,0,1,15.68,9.81h-24a7.5,7.5,0,0,0,0,15h24a17.44,17.44,0,0,1-15.68,9.8H325.8a7.5,7.5,0,0,0-5.41,12.7l33.23,34.62a7.5,7.5,0,0,0,10.82-10.38l-22.07-23a32.47,32.47,0,0,0,23.27-23.74h5.85a7.5,7.5,0,0,0,0-15h-5.85a32.17,32.17,0,0,0-4.17-9.81h10A7.5,7.5,0,0,0,379,102.88ZM348.65,62.66A80.34,80.34,0,1,0,429,143,80.43,80.43,0,0,0,348.65,62.66Zm0,145.67A65.34,65.34,0,1,1,414,143,65.4,65.4,0,0,1,348.65,208.33Z"/></svg>