<svg xmlns="http://www.w3.org/2000/svg" width="32" height="32" viewBox="0 0 8.467 8.467"><g transform="translate(209.14 -413.663)"><path d="m -2890.084,6.59375 c -1.0801,0.043339 -2.0992,0.5443125 -2.9668,1.2285156 -0.9915,0.7819087 -1.8092,1.8196982 -2.3554,2.8359374 -0.5207,0.968617 -0.5233,2.318931 -0.4649,3.476563 0.028,0.555252 0.08,1.049079 0.127,1.427734 l -7.2481,-0.01953 0.9219,-3.046875 c 0.095,-0.321063 -0.1455,-0.643377 -0.4805,-0.642578 l -7.4765,0.09766 c -0.039,-0.275212 -0.1222,-0.636883 -0.3262,-1.027344 -0.3772,-0.721247 -1.238,-1.4595056 -2.6582,-1.4179686 -0.8789,0.026457 -1.678,0.5314876 -2.2442,1.1874996 -0.5661,0.656051 -0.9368,1.506436 -0.7597,2.355469 0.3488,1.67195 1.3878,2.398582 2.289,2.5625 0.4342,0.07902 0.8339,0.04819 1.1368,-0.002 l 1.7187,9.685547 c 0.045,0.234681 0.2494,0.404876 0.4883,0.40625 h 4.3769 c 0.2033,0.0012 0.3871,-0.120792 0.4649,-0.308594 l 0.6601,-1.623047 c 1.2903,1.248462 2.9986,2.104406 4.7149,2.197266 2.887,0.156094 5.9907,-1.773382 7.2637,-4.347656 0.1686,-0.340975 0.2397,-0.723696 0.2753,-1.117188 l 0.9805,-0.02148 c -0.051,0.327512 -0.1108,0.775151 -0.1504,1.287109 -0.076,0.987175 -0.103,2.144814 0.2735,2.97461 0.2082,0.459325 0.6032,0.981525 1.2382,1.041015 0.3731,0.03402 0.7793,-0.05151 1.1387,-0.236328 0.3594,-0.184819 0.7195,-0.514733 0.707,-0.996094 -0.019,-0.668636 -0.1195,-1.832095 -0.1914,-2.835937 -0.038,-0.501922 -0.066,-1.291016 -0.066,-1.291016 0,0 1.9146,-0.04629 2.8672,-0.06641 0.2352,-0.006 0.4344,-0.175123 0.4785,-0.40625 0,0 0.3095,-1.533912 0.4805,-3.417969 0.1712,-1.884019 0.2369,-4.104852 -0.3828,-5.640625 -0.3662,-0.9074266 -0.9066,-1.8976342 -1.625,-2.7148436 -0.7185,-0.8172473 -1.6335,-1.4786845 -2.7383,-1.5722656 -0.1565,-0.013276 -0.3125,-0.01791 -0.4668,-0.011719 z" color="#000" font-family="sans-serif" font-weight="400" overflow="visible" transform="matrix(.26458 0 0 .26458 562.492 413.678)" white-space="normal" style="line-height:normal;font-variant-ligatures:normal;font-variant-position:normal;font-variant-caps:normal;font-variant-numeric:normal;font-variant-alternates:normal;font-feature-settings:normal;text-indent:0;text-align:start;text-decoration-line:none;text-decoration-style:solid;text-decoration-color:#000;text-transform:none;text-orientation:mixed;shape-padding:0;isolation:auto;mix-blend-mode:normal"/><path fill="#f66b6f" d="m -2889.707,7.6015625 c 0.7555,0.063874 1.46,0.5337762 2.0742,1.2324219 0.6142,0.6986834 1.1226,1.6115716 1.4551,2.4355466 0.4747,1.176416 0.4763,3.343478 0.3105,5.167969 -0.1459,1.605354 -0.3483,2.623242 -0.4062,2.923828 l -6.3575,0.142578 c -0.046,-0.503316 -0.1311,-1.00685 -0.2343,-1.478515 -0.2578,-1.172145 -0.6192,-2.134766 -0.6192,-2.134766 -0.073,-0.19459 -0.2589,-0.323671 -0.4668,-0.324219 l -0.7832,-0.002 c -0.05,-0.367283 -0.1077,-0.866507 -0.1386,-1.482422 -0.055,-1.090393 0.033,-2.373421 0.3457,-2.953125 0.482,-0.89673 1.2364,-1.8442562 2.0976,-2.5234372 0.8613,-0.6791811 1.811,-1.0811598 2.7227,-1.0039063 z" color="#000" font-family="sans-serif" font-weight="400" overflow="visible" transform="matrix(.26458 0 0 .26458 562.492 413.678)" white-space="normal" style="line-height:normal;font-variant-ligatures:normal;font-variant-position:normal;font-variant-caps:normal;font-variant-numeric:normal;font-variant-alternates:normal;font-feature-settings:normal;text-indent:0;text-align:start;text-decoration-line:none;text-decoration-style:solid;text-decoration-color:#000;text-transform:none;text-orientation:mixed;shape-padding:0;isolation:auto;mix-blend-mode:normal"/><path fill="#fad741" d="m -2912.9824,10.509766 c 1.1,-0.03402 1.495,0.406163 1.7422,0.878906 0.1069,0.204439 0.164,0.405382 0.1992,0.576172 l -1.6016,0.02148 c -0.3061,0.0043 -0.5365,0.28007 -0.4863,0.582031 l 0.3652,2.056641 c -0.2134,0.0347 -0.4966,0.05687 -0.7871,0.0039 -0.5886,-0.10696 -1.195,-0.409056 -1.4824,-1.787109 -0.087,-0.414274 0.12,-1.012491 0.5391,-1.498047 0.419,-0.485594 1.0187,-0.819584 1.5117,-0.833984 z" color="#000" font-family="sans-serif" font-weight="400" overflow="visible" transform="matrix(.26458 0 0 .26458 562.492 413.678)" white-space="normal" style="line-height:normal;font-variant-ligatures:normal;font-variant-position:normal;font-variant-caps:normal;font-variant-numeric:normal;font-variant-alternates:normal;font-feature-settings:normal;text-indent:0;text-align:start;text-decoration-line:none;text-decoration-style:solid;text-decoration-color:#000;text-transform:none;text-orientation:mixed;shape-padding:0;isolation:auto;mix-blend-mode:normal"/><path fill="#87d4f6" d="m -2903.2227,12.857422 -0.8066,2.683594 -1.1269,-0.0039 c -0.017,-8.61e-4 -0.034,-8.61e-4 -0.051,0 v 0 c -0.1681,0.01921 -0.315,0.122091 -0.3906,0.273438 0,0 -0.4299,0.836538 -0.7891,1.880859 -0.359,1.044284 -0.7119,2.282188 -0.3398,3.308594 0.25,0.689288 0.6309,1.3436 1.1015,1.943359 l -0.7187,1.761719 h -3.6172 l -2.0742,-11.730469 z" color="#000" font-family="sans-serif" font-weight="400" overflow="visible" transform="matrix(.26458 0 0 .26458 562.492 413.678)" white-space="normal" style="line-height:normal;font-variant-ligatures:normal;font-variant-position:normal;font-variant-caps:normal;font-variant-numeric:normal;font-variant-alternates:normal;font-feature-settings:normal;text-indent:0;text-align:start;text-decoration-line:none;text-decoration-style:solid;text-decoration-color:#000;text-transform:none;text-orientation:mixed;shape-padding:0;isolation:auto;mix-blend-mode:normal"/><path fill="#3ab37c" d="m -2904.8242,16.533203 10.4961,0.03711 c 0.082,0.23093 0.2792,0.754823 0.4804,1.669922 0.2404,1.093607 0.3216,2.377979 0.045,2.9375 -1.0653,2.154293 -3.9322,3.921624 -6.3125,3.792969 -2.3039,-0.124724 -4.8833,-2.125942 -5.6758,-4.310547 -0.1871,-0.515641 0.014,-1.674603 0.3457,-2.642578 0.2823,-0.820989 0.5269,-1.293622 0.6211,-1.484376 z" color="#000" font-family="sans-serif" font-weight="400" overflow="visible" transform="matrix(.26458 0 0 .26458 562.492 413.678)" white-space="normal" style="line-height:normal;font-variant-ligatures:normal;font-variant-position:normal;font-variant-caps:normal;font-variant-numeric:normal;font-variant-alternates:normal;font-feature-settings:normal;text-indent:0;text-align:start;text-decoration-line:none;text-decoration-style:solid;text-decoration-color:#000;text-transform:none;text-orientation:mixed;shape-padding:0;isolation:auto;mix-blend-mode:normal"/><path fill="#e29b69" d="m -2889.4492,20.433594 c 0,0 0.021,0.992705 0.072,1.333984 0.073,1.012762 0.1772,2.183344 0.1934,2.796875 0,0.07521 -0.079,0.195649 -0.3027,0.310547 -0.2238,0.114898 -0.5436,0.178739 -0.7246,0.162109 -0.1886,-0.0189 -0.4936,-0.311232 -0.627,-0.605468 -0.2494,-0.549733 -0.2796,-1.665312 -0.207,-2.605469 0.047,-0.612171 0.1142,-1.058323 0.164,-1.361328 z" color="#000" font-family="sans-serif" font-weight="400" overflow="visible" transform="matrix(.26458 0 0 .26458 562.492 413.678)" white-space="normal" style="line-height:normal;font-variant-ligatures:normal;font-variant-position:normal;font-variant-caps:normal;font-variant-numeric:normal;font-variant-alternates:normal;font-feature-settings:normal;text-indent:0;text-align:start;text-decoration-line:none;text-decoration-style:solid;text-decoration-color:#000;text-transform:none;text-orientation:mixed;shape-padding:0;isolation:auto;mix-blend-mode:normal"/><path d="m -206.52539,415.30859 c -0.0958,0.006 -0.15384,0.10831 -0.10938,0.19336 0.29769,0.5651 0.83335,0.91016 1.52539,1.07617 0.10336,0.0246 0.1921,-0.0765 0.1543,-0.17578 l -0.37695,-0.96289 c -0.019,-0.0487 -0.065,-0.0816 -0.11719,-0.084 -0.37455,-0.0163 -0.75497,-0.0334 -1.07617,-0.0469 z" color="#000" font-family="sans-serif" font-weight="400" overflow="visible" white-space="normal" style="line-height:normal;font-variant-ligatures:normal;font-variant-position:normal;font-variant-caps:normal;font-variant-numeric:normal;font-variant-alternates:normal;font-feature-settings:normal;text-indent:0;text-align:start;text-decoration-line:none;text-decoration-style:solid;text-decoration-color:#000;text-transform:none;text-orientation:mixed;shape-padding:0;isolation:auto;mix-blend-mode:normal"/><path fill="#996880" d="m -206.20319,415.58767 0.65631,0.0295 0.22259,0.56235 c -0.37176,0.0692 -0.74233,-0.30221 -0.8789,-0.59188 z" color="#000" font-family="sans-serif" font-weight="400" overflow="visible" white-space="normal" style="line-height:normal;font-variant-ligatures:normal;font-variant-position:normal;font-variant-caps:normal;font-variant-numeric:normal;font-variant-alternates:normal;font-feature-settings:normal;text-indent:0;text-align:start;text-decoration-line:none;text-decoration-style:solid;text-decoration-color:#000;text-transform:none;text-orientation:mixed;shape-padding:0;isolation:auto;mix-blend-mode:normal"/><path d="M-205.99219 416.0332l-.77539.79883.18946.18359.77539-.79687zM-205.35938 415.24414a.13230489.13230489 0 0 0-.0781.041l-.0957.0996a.13260774.13260774 0 1 0 .1914.18359l.0957-.0996a.13230489.13230489 0 0 0-.11329-.22461zM-205.80078 418.21484a.06615245.06615245 0 0 0-.0234.008l-.28906.15234a.06640735.06640735 0 1 0 .0625.11719l.28906-.15235a.06615245.06615245 0 0 0-.0391-.125zM-205.63672 418.37891a.06615245.06615245 0 0 0-.0293.01l-.53125.3125a.06650291.06650291 0 1 0 .0664.11524l.53125-.3125a.06615245.06615245 0 0 0-.0371-.125zM-205.54492 418.60938a.06615245.06615245 0 0 0-.0293.0117l-.5957.38282a.06615245.06615245 0 1 0 .0703.11132l.59766-.38281a.06615245.06615245 0 0 0-.043-.12304zM-205.46289 418.85742a.06615245.06615245 0 0 0-.0293.0117l-.51953.33594a.0663733.0663733 0 1 0 .0723.11133l.51953-.33594a.06615245.06615245 0 0 0-.043-.12305zM-205.38477 419.06445a.06615245.06615245 0 0 0-.0293.0137l-.45899.34766a.0662192.0662192 0 1 0 .0801.10547l.45899-.34766a.06615245.06615245 0 0 0-.0508-.11914zM-205.27734 419.30078a.06615245.06615245 0 0 0-.0273.0117l-.39648.2832a.06720625.06720625 0 1 0 .0781.10938l.39453-.28516a.06615245.06615245 0 0 0-.0488-.11914zM-205.16992 419.51367a.06615245.06615245 0 0 0-.0293.0117l-.32422.22461a.06615245.06615245 0 1 0 .0762.10742l.32422-.22265a.06615245.06615245 0 0 0-.0469-.1211zM-205.08789 419.72461a.06615245.06615245 0 0 0-.0352.01l-.21289.125a.06615245.06615245 0 1 0 .0664.11328l.21289-.12305a.06615245.06615245 0 0 0-.0312-.125zM-204.23047 416.89453a.13230489.13230489 0 0 0-.0996.0508l-.69922.84571a.13241469.13241469 0 1 0 .20313.16992l.70117-.84766a.13230489.13230489 0 0 0-.10547-.21875zM-201.4082 417.8125a.06615245.06615245 0 0 0-.0391.0215l-.61914.64258a.06615245.06615245 0 1 0 .0937.0918l.6211-.64258a.06615245.06615245 0 0 0-.0566-.11328zM-201.39258 418.125a.06615245.06615245 0 0 0-.0371.0215l-.33789.35352a.0663056.0663056 0 0 0 .0957.0918l.3379-.35547a.06615245.06615245 0 0 0-.0586-.11133zM-201.32422 418.37695a.06615245.06615245 0 0 0-.0488.0273l-.11914.15234a.06680726.06680726 0 1 0 .10547.082l.11914-.15429a.06615245.06615245 0 0 0-.0566-.10743zM-202.13086 416.11719a.06615245.06615245 0 0 0-.0332.125c.17083.0946.31263.20348.4082.33789.0956.13441.14798.29411.13672.5039a.06652536.06652536 0 1 0 .13281.008c.0127-.23586-.0504-.43079-.16211-.58789-.1117-.1571-.26995-.27658-.45117-.37696a.06615245.06615245 0 0 0-.0312-.01zM-207.0332 417.29688a.06615245.06615245 0 0 0-.0449.0215l-.6211.64453a.0663056.0663056 0 1 0 .0957.0918l.61914-.64453a.06615245.06615245 0 0 0-.0488-.11328zM-207.3418 417.27539a.06615245.06615245 0 0 0-.0391.0215l-.33594.35351a.06630921.06630921 0 0 0 .0957.0918l.33789-.35547a.06615245.06615245 0 0 0-.0586-.11133zM-207.62109 417.22266a.06615245.06615245 0 0 0-.043.0273l-.11914.15234a.06681033.06681033 0 0 0 .10547.082l.11914-.1543a.06615245.06615245 0 0 0-.0625-.10742z" color="#000" font-family="sans-serif" font-weight="400" overflow="visible" white-space="normal" style="line-height:normal;font-variant-ligatures:normal;font-variant-position:normal;font-variant-caps:normal;font-variant-numeric:normal;font-variant-alternates:normal;font-feature-settings:normal;text-indent:0;text-align:start;text-decoration-line:none;text-decoration-style:solid;text-decoration-color:#000;text-transform:none;text-orientation:mixed;shape-padding:0;isolation:auto;mix-blend-mode:normal"/></g></svg>