<svg xmlns="http://www.w3.org/2000/svg" id="Layer_2" enable-background="new 0 0 60 60" viewBox="0 0 60 60"><path fill="#e7eef9" d="M12.64,41.09H7.39v-8.82h43.02c1.21,0,2.19,0.97,2.19,2.18v6.64h-5.13h-0.11"/><path d="M52.61,42.09h-5.24c-0.55,0-1-0.45-1-1s0.45-1,1-1h4.24v-5.64c0-0.65-0.53-1.18-1.19-1.18H8.39v6.82h4.25
			c0.55,0,1,0.45,1,1s-0.45,1-1,1H7.39c-0.55,0-1-0.45-1-1v-8.82c0-0.55,0.45-1,1-1h43.02c1.76,0,3.19,1.43,3.19,3.18v6.64
			C53.61,41.64,53.16,42.09,52.61,42.09z"/><path d="M50.17,33.27H32.79c-0.55,0-1-0.45-1-1V16.98c0-0.55,0.45-1,1-1h12.62c0.31,0,0.61,0.15,0.79,0.39l4.76,6.24
			c0.13,0.17,0.21,0.39,0.21,0.61v9.05C51.17,32.82,50.72,33.27,50.17,33.27z M33.79,31.27h15.38v-7.71l-4.26-5.58H33.79V31.27z"/><polygon fill="#2ba4f5" points="45.79 27.89 45.79 24.7 43.24 21.35 37.16 21.35 37.16 27.89"/><path d="M45.79 28.89h-8.63c-.55 0-1-.45-1-1v-6.54c0-.55.45-1 1-1h6.08c.31 0 .61.15.79.39l2.55 3.34c.13.17.21.39.21.61v3.2C46.79 28.44 46.34 28.89 45.79 28.89zM38.16 26.89h6.63v-1.86l-2.04-2.68h-4.58V26.89zM38.12 42.09H21.87c-.55 0-1-.45-1-1s.45-1 1-1h16.25c.55 0 1 .45 1 1S38.68 42.09 38.12 42.09z"/><circle cx="42.74" cy="42.09" r="4.73" fill="#544f55"/><path d="M42.74,47.82c-3.16,0-5.73-2.57-5.73-5.73s2.57-5.73,5.73-5.73s5.73,2.57,5.73,5.73S45.9,47.82,42.74,47.82z M42.74,38.36
			c-2.06,0-3.73,1.67-3.73,3.73s1.67,3.73,3.73,3.73s3.73-1.67,3.73-3.73S44.8,38.36,42.74,38.36z"/><g><circle cx="17.26" cy="42.09" r="4.73" fill="#544f55"/><path d="M17.26,47.82c-3.16,0-5.73-2.57-5.73-5.73s2.57-5.73,5.73-5.73c3.16,0,5.73,2.57,5.73,5.73S20.42,47.82,17.26,47.82z
			 M17.26,38.36c-2.06,0-3.73,1.67-3.73,3.73s1.67,3.73,3.73,3.73s3.73-1.67,3.73-3.73S19.32,38.36,17.26,38.36z"/></g><g><path fill="#52c392" d="M32.78,16.18v16.09H7.39V16.18c0-1.65,1.34-3,3-3h19.39C31.44,13.18,32.78,14.53,32.78,16.18z"/><path d="M32.78,33.27H7.39c-0.55,0-1-0.45-1-1V16.18c0-2.21,1.79-4,4-4h19.39c2.21,0,4,1.79,4,4v16.09
			C33.78,32.82,33.34,33.27,32.78,33.27z M8.39,31.27h23.39V16.18c0-1.1-0.9-2-2-2H10.39c-1.1,0-2,0.9-2,2V31.27z"/></g></svg>