<svg xmlns="http://www.w3.org/2000/svg" width="32" height="32" viewBox="0 0 32 32"><g transform="translate(0 -1020.362)"><path fill="#2b4255" d="m 28.4731,1044.1525 0,1.9815 c 0,0.6825 -0.5412,1.2303 -1.2135,1.2282 l -1.5729,-0.01 c -0.6723,0 -1.2136,-0.5533 -1.2136,-1.2358 l 0,-1.8165"/><path fill="#34485c" fill-rule="evenodd" d="m 5.4735,1032.4187 0,-1.7337 c 0,-0.2663 0,-0.7109 -0.504,-0.6917 l -1.4912,0.057 C 2.4735,1030.0883 2,1031.5512 2,1032.1159 c 0,0.4353 0.4735,0.4164 0.4766,0.4171 z"/><path fill="#34485c" fill-rule="evenodd" style="line-height:normal;text-indent:0;text-align:start;text-decoration-line:none;text-decoration-style:solid;text-decoration-color:#000;text-transform:none;block-progression:tb;isolation:auto;mix-blend-mode:normal" d="M27.466797 1031.0781a.50005.50005 0 0 0-.34375.1504l-1 .9981a.50005.50005 0 1 0 .705078.707l1-.9961a.50005.50005 0 0 0-.361328-.8594zM4.4667969 1031.0059a.50005.50005 0 0 0-.3496094.8574l1 1.0039a.50005.50005 0 1 0 .7070313-.707l-1-1.002a.50005.50005 0 0 0-.3574219-.1523z" color="#000" font-family="sans-serif" font-weight="400" overflow="visible" white-space="normal"/><path fill="#2b4255" d="m 7.4755,1044.1525 0,1.9815 c 0,0.6825 -0.5412,1.2303 -1.2135,1.2282 l -1.5729,-0.01 c -0.6723,0 -1.2136,-0.5533 -1.2136,-1.2358 l 0,-1.8165"/><path fill="#f05542" fill-rule="evenodd" d="m 5.5803,1032.6348 c 0,0 4.3313,0.8979 10.3952,0.9172 6.0639,0.019 10.3953,-0.8513 10.3953,-0.8513 l 0.098,-0.051 3.0063,2.8798 0,8.2447 c -0.01,0.4543 -0.3568,0.8187 -0.8,0.8176 l -5.1001,-0.016 -0.1,0 c 0,-0.554 -0.446,-1.0012 -1,-1.0031 l -13,-0.041 c -0.554,0 -1,0.4429 -1,0.9969 l -0.098,0 -5.1007,-0.016 c -0.4432,0 -0.8277,-0.3693 -0.8,-0.8226 l 0,-8.2447 3.0742,-2.8919 z"/><path fill="#34485c" d="m 26.4735,1032.6218 -1.6797,-5.8001 c -0.1917,-0.662 -0.5619,-1.2434 -1.2598,-1.2458 l -15.117,-0.048 c -0.6979,0 -1.068,0.577 -1.2598,1.2378 l -1.6796,5.7895 0.1027,0.079 c 0,0 4.3313,0.8979 10.3952,0.9172 6.0639,0.019 10.3953,-0.8513 10.3953,-0.8513 z"/><path fill="#4bbfeb" d="m 25.457,1032.8303 -1.5183,-5.243 c -0.1733,-0.5984 -0.5079,-1.124 -1.1388,-1.126 l -13.6648,-0.043 c -0.6309,0 -0.9655,0.5216 -1.1388,1.1189 l -1.5183,5.2333 0.093,0.072 c 0,0 3.9153,0.8116 9.3967,0.8292 5.4814,0.017 9.3966,-0.7697 9.3966,-0.7697 z"/><path fill="#34485c" style="line-height:normal;text-indent:0;text-align:start;text-decoration-line:none;text-decoration-style:solid;text-decoration-color:#000;text-transform:none;block-progression:tb;isolation:auto;mix-blend-mode:normal" d="M 9.4765625,1037.0312 A 0.50004997,0.50004997 0 0 0 9,1037.6855 l 1.300781,4.004 a 0.50004997,0.50004997 0 0 0 0.472657,0.3457 l 10.40039,0.033 a 0.50004997,0.50004997 0 0 0 0.476563,-0.3457 l 1.300781,-3.9961 a 0.50004997,0.50004997 0 0 0 -0.47461,-0.6543 l -12.9999995,-0.041 z m 0.6874995,1.002 11.623047,0.037 -0.974609,2.9961 -9.673828,-0.029 -0.97461,-3.0039 z" color="#000" font-family="sans-serif" font-weight="400" overflow="visible" white-space="normal"/><path fill="#34485c" fill-rule="evenodd" style="line-height:normal;text-indent:0;text-align:start;text-decoration-line:none;text-decoration-style:solid;text-decoration-color:#000;text-transform:none;block-progression:tb;isolation:auto;mix-blend-mode:normal" d="m 9.9765625,1039.0332 -0.00195,1 11.9999996,0.037 0.002,-1 -11.9999995,-0.037 z" color="#000" font-family="sans-serif" font-weight="400" overflow="visible" white-space="normal"/><path fill="#34485c" fill-rule="evenodd" d="m 26.473,1032.6192 0,-1.7337 c 0,-0.2663 0,-0.7109 0.504,-0.7301 l 1.4912,-0.057 c 1.0048,-0.038 1.4783,1.3883 1.4783,1.953 0,0.4353 -0.4735,0.4525 -0.4766,0.4534 z"/><path fill="#f8b84e" fill-opacity=".917" d="M8.4755 1041.5282l-4-.013 0-.9856 0-3.0144c2.5-.1442 4 1.5127 4 4.0127zM23.4755 1041.5757l4 .013 0-.9856 0-3.0144c-2.5-.1595-4 1.4873-4 3.9873z"/></g></svg>