<svg id="airship" xmlns="http://www.w3.org/2000/svg" viewBox="0 0 520.77 316"><defs><style>.cls-1{fill:#5eebff;}.cls-2{fill:#fff536;}.cls-3{fill:#ff4833;}.cls-4,.cls-6{fill:#fff;}.cls-13,.cls-14,.cls-15,.cls-16,.cls-5{fill:none;stroke-linecap:round;stroke-linejoin:round;}.cls-5{stroke:#d3dde2;}.cls-14,.cls-5{stroke-width:4px;}.cls-6{opacity:0.75;}.cls-7{opacity:0.25;}.cls-8{opacity:0.15;}.cls-9{opacity:0.08;}.cls-10{opacity:0.35;}.cls-11{fill:#ffc4c0;opacity:0.55;}.cls-12{opacity:0.5;}.cls-13{stroke:#000;}.cls-13,.cls-15{stroke-width:2px;}.cls-14,.cls-15,.cls-16{stroke:#2a3540;}.cls-16{stroke-width:6px;}</style></defs><title>zeppelin</title><g id="color"><path class="cls-1" d="M546.94,313.75a13,13,0,0,1,0,26Z" transform="translate(-133.53 -144.65)"/><path class="cls-2" d="M546.94,339.75v2a10,10,0,0,1-9.77,10h-.23v-50h.23a10,10,0,0,1,9.77,10v28Z" transform="translate(-133.53 -144.65)"/><path class="cls-3" d="M436.25,408.19a198.33,198.33,0,0,1-24-4.89,251.16,251.16,0,0,1-25.2-8.19h0a306.17,306.17,0,0,1-28.54-12.65,333.66,333.66,0,0,1-47.25-28.88,188.9,188.9,0,0,1-16.84-13.82h.06v-26h-.06A186.56,186.56,0,0,1,311.25,300a334.53,334.53,0,0,1,47.21-28.88c29.84-15,65.41-27.33,99.54-27.33a83,83,0,0,1,79.17,58h-.23v50h.23a83.06,83.06,0,0,1-70.41,57.54,81.8,81.8,0,0,1-8.76.46A158.19,158.19,0,0,1,436.25,408.19Zm-76.8-76.44v-10h-56v10Z" transform="translate(-133.53 -144.65)"/><path class="cls-1" d="M466.76,409.29l-3.46,6.49c-.21.39-.43.77-.67,1.14H440.25a4,4,0,0,1-4-4v-4.73A158.19,158.19,0,0,0,458,409.75,81.8,81.8,0,0,0,466.76,409.29Z" transform="translate(-133.53 -144.65)"/><path class="cls-1" d="M440.25,416.92h22.38a15.07,15.07,0,0,1-1.46,1.91,16,16,0,0,1-12,5.42h-29a8,8,0,0,1-7.83-6.33,8.37,8.37,0,0,1-.17-1.67V403.47l0-.17a198.33,198.33,0,0,0,24,4.89v4.73A4,4,0,0,0,440.25,416.92Z" transform="translate(-133.53 -144.65)"/><path class="cls-1" d="M412.39,417.92H401.22v-4h11v2.33A8.37,8.37,0,0,0,412.39,417.92Z" transform="translate(-133.53 -144.65)"/><path class="cls-1" d="M401.22,417.92v1h-2a3,3,0,0,1,0-6h2v5Z" transform="translate(-133.53 -144.65)"/><rect class="cls-1" x="169.92" y="177.1" width="56" height="10"/><path class="cls-1" d="M309.59,263.24c11.21-9.91,29.94-2.95,48.87,7.84A334.53,334.53,0,0,0,311.25,300C305.15,291.35,298.11,273.38,309.59,263.24Z" transform="translate(-133.53 -144.65)"/><path class="cls-1" d="M358.53,382.45c-18.95,10.81-37.72,17.8-48.94,7.88-11.5-10.16-4.42-28.16,1.69-36.76A333.66,333.66,0,0,0,358.53,382.45Z" transform="translate(-133.53 -144.65)"/><path class="cls-1" d="M294.5,313.75v26h-.06a8,8,0,0,1-7.94-8v-10a8,8,0,0,1,7.94-8Z" transform="translate(-133.53 -144.65)"/></g><g id="clouds"><path class="cls-4" d="M250.05,253.48c11.41,0,18.67,5.38,18.67,12s-7.26,12-18.67,12-20.67-5.37-20.67-12a7.52,7.52,0,0,1,1-3.72c-2.7-.75-4.6-2.53-4.6-4.61,0-2.76,3.36-5,7.5-5,3,0,5.54,1.15,6.75,2.83A33.05,33.05,0,0,1,250.05,253.48Z" transform="translate(-133.53 -144.65)"/><path class="cls-4" d="M189.42,255.36a4,4,0,1,1-4,4A4,4,0,0,1,189.42,255.36Z" transform="translate(-133.53 -144.65)"/><path class="cls-4" d="M211.47,270.48c5.66,0,9.25,3,9.25,6.67s-3.59,6.67-9.25,6.67c-4.22,0-7.85-1.66-9.42-4a4,4,0,1,1,0-5.28C203.62,272.14,207.25,270.48,211.47,270.48Z" transform="translate(-133.53 -144.65)"/><path class="cls-4" d="M193.42,358.82a4,4,0,1,1-4,4A4,4,0,0,1,193.42,358.82Z" transform="translate(-133.53 -144.65)"/><path class="cls-4" d="M146.37,367.77c6,0,10.83,3.44,10.83,7.67s-4.85,7.67-10.83,7.67-10.84-3.44-10.84-7.67S140.38,367.77,146.37,367.77Z" transform="translate(-133.53 -144.65)"/><path class="cls-4" d="M246.58,398.59a46.83,46.83,0,0,1-18.36,3.56,50.65,50.65,0,0,1-7.8-.59,7.25,7.25,0,0,1-14-2.66,6.45,6.45,0,0,1,.26-1.87c-6.43-3.6-10.47-8.78-10.47-14.55,0-10.86,14.32-19.66,32-19.66s32,8.8,32,19.66c0,.34,0,.68,0,1,7.37.32,13.2,5,13.2,10.73,0,5.94-6.26,10.75-14,10.75C253.67,405,248.76,402.35,246.58,398.59Z" transform="translate(-133.53 -144.65)"/><path class="cls-4" d="M572.33,172.41a12.79,12.79,0,0,1-.34-3,13.53,13.53,0,0,1,23-9.62,20.87,20.87,0,0,1,40.26,7.58,13.44,13.44,0,1,1,3.56,26.4H561a13.7,13.7,0,1,1,11.34-21.38Z" transform="translate(-133.53 -144.65)"/><path class="cls-4" d="M549.82,421a28.75,28.75,0,0,1,56.18-.48,19.06,19.06,0,0,1,3.8-.38,19.25,19.25,0,0,1,0,38.5l-65.63-.75A18.88,18.88,0,1,1,549.82,421Z" transform="translate(-133.53 -144.65)"/><path class="cls-5" d="M240.05,255a33.05,33.05,0,0,1,10-1.5c11.41,0,18.67,5.38,18.67,12s-7.26,12-18.67,12-20.67-5.37-20.67-12a7.52,7.52,0,0,1,1-3.72" transform="translate(-133.53 -144.65)"/><path class="cls-5" d="M202.05,279.79c1.57,2.37,5.2,4,9.42,4,5.66,0,9.25-3,9.25-6.67s-3.59-6.67-9.25-6.67c-4.22,0-7.85,1.66-9.42,4" transform="translate(-133.53 -144.65)"/><path class="cls-5" d="M193.42,259.36a4,4,0,1,1-4-4A4,4,0,0,1,193.42,259.36Z" transform="translate(-133.53 -144.65)"/><path class="cls-5" d="M260.18,383.5c7.37.32,13.2,5,13.2,10.73,0,5.94-6.26,10.75-14,10.75-5.71,0-10.62-2.63-12.8-6.39h0" transform="translate(-133.53 -144.65)"/><path class="cls-5" d="M206.69,397c-6.43-3.6-10.47-8.78-10.47-14.55,0-10.86,14.32-19.66,32-19.66s32,8.8,32,19.66c0,.34,0,.68,0,1a12.58,12.58,0,0,1-1.12,4.22" transform="translate(-133.53 -144.65)"/><path class="cls-5" d="M220.42,401.56a50.65,50.65,0,0,0,7.8.59,46.83,46.83,0,0,0,18.36-3.56c1-.43,2-.89,2.87-1.39" transform="translate(-133.53 -144.65)"/><path class="cls-5" d="M157.2,375.44c0,4.23-4.85,7.67-10.83,7.67s-10.84-3.44-10.84-7.67,4.85-7.67,10.84-7.67S157.2,371.21,157.2,375.44Z" transform="translate(-133.53 -144.65)"/><path class="cls-5" d="M197.42,362.82a4,4,0,1,1-4-4A4,4,0,0,1,197.42,362.82Z" transform="translate(-133.53 -144.65)"/><path class="cls-5" d="M593.55,167.54h0a20.45,20.45,0,0,1,1.49-7.72,20.87,20.87,0,0,1,40.26,7.58v.14a20.07,20.07,0,0,1-.21,2.92,20.61,20.61,0,0,1-2,6.47" transform="translate(-133.53 -144.65)"/><path class="cls-5" d="M572.33,172.41a12.79,12.79,0,0,1-.34-3,13.53,13.53,0,0,1,23-9.62" transform="translate(-133.53 -144.65)"/><path class="cls-5" d="M574.35,177.07a13.43,13.43,0,0,0-2-4.66A13.69,13.69,0,1,0,561,193.79h77.87" transform="translate(-133.53 -144.65)"/><path class="cls-5" d="M638.86,193.79a13.44,13.44,0,1,0-3.56-26.4" transform="translate(-133.53 -144.65)"/><path class="cls-5" d="M544.17,457.9A18.88,18.88,0,1,1,549.82,421" transform="translate(-133.53 -144.65)"/><path class="cls-5" d="M549.22,426.9a29.27,29.27,0,0,1,.6-5.89,28.75,28.75,0,0,1,56.18-.48,28.46,28.46,0,0,1,.72,6.37" transform="translate(-133.53 -144.65)"/><path class="cls-5" d="M606,420.53a19.06,19.06,0,0,1,3.8-.38,19.25,19.25,0,0,1,0,38.5" transform="translate(-133.53 -144.65)"/><line class="cls-5" x1="476.27" y1="314" x2="410.64" y2="313.25"/><path class="cls-5" d="M206.69,397a6.45,6.45,0,0,0-.26,1.87,7.25,7.25,0,0,0,14,2.66" transform="translate(-133.53 -144.65)"/><path class="cls-5" d="M230.4,261.76c-2.7-.75-4.6-2.53-4.6-4.61,0-2.76,3.36-5,7.5-5,3,0,5.54,1.15,6.75,2.83" transform="translate(-133.53 -144.65)"/><path class="cls-5" d="M202.05,279.79a4,4,0,1,1,0-5.28" transform="translate(-133.53 -144.65)"/></g><g id="shadows"><path class="cls-4" d="M547.17,313.1v30a9.93,9.93,0,0,1-2.82,7,9.83,9.83,0,0,0,.82-4v-30a10,10,0,0,0-8-9.8v-3.2a10,10,0,0,1,10,10Z" transform="translate(-133.53 -144.65)"/><path class="cls-4" d="M556.67,336.33a13,13,0,0,0-9.73-18.46v-3.15a13,13,0,0,1,9.73,21.61Z" transform="translate(-133.53 -144.65)"/><circle class="cls-4" cx="418.19" cy="178.96" r="2"/><path class="cls-4" d="M352.34,275.27c-17.6-9.82-34.84-16-45.8-7.93a18.21,18.21,0,0,1,2.67-2.93c11.21-9.91,29.94-2.95,48.87,7.84Z" transform="translate(-133.53 -144.65)"/><rect class="cls-6" x="169.92" y="177.1" width="56" height="5"/><path class="cls-4" d="M294.66,318.47c-2.88.75-8.25,5.31-8.25,7.81,0,0-1.31-13.25,7.69-12.5Z" transform="translate(-133.53 -144.65)"/><path class="cls-7" d="M345.72,389.46c-16.83-6.62-30.42-21.87-36.23-30a29.4,29.4,0,0,1,3.35-6.12h0a335.37,335.37,0,0,0,47.06,28.76C357.21,384,350,387.43,345.72,389.46Z" transform="translate(-133.53 -144.65)"/><path class="cls-7" d="M459.45,420.12c-23,2.17-39.78-6.77-47.23-10.37v-6.46A178.84,178.84,0,0,0,458,409.75a81.83,81.83,0,0,0,8.47-.43C465.72,411.29,461.13,417.67,459.45,420.12Z" transform="translate(-133.53 -144.65)"/><path class="cls-8" d="M537.17,339.75c-33.5,24.92-119.19,58.08-242.51-5.5a60.12,60.12,0,0,0,0,6.75c31.67,27.83,128.38,83.17,181.53,66.75s61.65-57.7,61.65-57.7Z" transform="translate(-133.53 -144.65)"/><path class="cls-7" d="M358.53,333.17C338.67,347.67,315.4,358.1,305,349s-6.26-21-1.55-25.5l0,8Z" transform="translate(-133.53 -144.65)"/><path class="cls-8" d="M536.94,346.83c-47.77,66.09-140.87,58.83-242.28-8.87l-.16,1.8c31,30.25,130.83,82.92,181.69,68,35.15-12.64,47.5-22.94,60.75-54.18C537,348.5,536.94,346.83,536.94,346.83Z" transform="translate(-133.53 -144.65)"/><path class="cls-4" d="M310.38,370.69c-5.37,6.69,5.38,21.81,14.38,17.56C317.76,386.68,313.09,382.64,310.38,370.69Z" transform="translate(-133.53 -144.65)"/><rect class="cls-8" x="274.97" y="269.46" width="2.92" height="3.26"/><path class="cls-8" d="M397,414.83a2.86,2.86,0,0,0,3.25,2.25,7.73,7.73,0,0,1-.42,1.83S395.54,418.08,397,414.83Z" transform="translate(-133.53 -144.65)"/><path class="cls-8" d="M536.5,327.17c-1.08,15.33,9.67,16.83,9.67,9.83l.61,8.86s-3.15,8.52-9.84,4.54C537.08,343.92,536.5,327.17,536.5,327.17Z" transform="translate(-133.53 -144.65)"/><path class="cls-8" d="M547.17,326.06c0,8,5.27,11.13,9.64,8.19-5.81,5.13-6.19,6.63-9.94,5.56C547.17,335.5,547.17,326.06,547.17,326.06Z" transform="translate(-133.53 -144.65)"/><path class="cls-9" d="M303.46,277.5c2.17,14,15.8,15.91,29.79,8.63-14.31,8.35-22,13.83-22,13.83S300.54,286.62,303.46,277.5Z" transform="translate(-133.53 -144.65)"/><path class="cls-8" d="M286.34,325.08c0,4.25,5.68,9,8.1,9.67a13.71,13.71,0,0,0,.06,5S284.83,337.25,286.34,325.08Z" transform="translate(-133.53 -144.65)"/><path class="cls-10" d="M436.75,408.14c2.25.61,29.72,1.18,29.72,1.18l-3.84,7.6-22.25.08c-3.37,0-4.62-4.68-4.75-6.26A3.25,3.25,0,0,1,436.75,408.14Z" transform="translate(-133.53 -144.65)"/><path class="cls-11" d="M294.44,315.58c23.95-22.58,96.51-70,163.56-70a83,83,0,0,1,79.17,58l-.67,6.13-1.33-3.13C481,189.25,320.22,293.53,294.44,316.74Z" transform="translate(-133.53 -144.65)"/><ellipse class="cls-11" cx="490.53" cy="284.3" rx="17.43" ry="31.09" transform="translate(-145.8 401.64) rotate(-57.62)"/><ellipse class="cls-11" cx="453.11" cy="262.08" rx="8.63" ry="6.2" transform="translate(-151.83 -110.1) rotate(-4.28)"/></g><g id="line"><g class="cls-12"><path class="cls-13" d="M294.5,336.33C406.9,390.24,464.85,389.41,503,368.85" transform="translate(-133.53 -144.65)"/><path class="cls-13" d="M536.94,342c-9,9.39-18.74,18-30.33,24.85" transform="translate(-133.53 -144.65)"/><path class="cls-13" d="M390.62,355.1h0" transform="translate(-133.53 -144.65)"/><path class="cls-13" d="M294.5,331.75c33.85,11.83,64.37,19.09,91.77,22.79" transform="translate(-133.53 -144.65)"/><path class="cls-13" d="M395,355.61c64,7.1,110.33-5.53,142-23.86" transform="translate(-133.53 -144.65)"/><path class="cls-13" d="M536.94,311.58c-38.6-40.33-91.27-66.83-242.44,5.67" transform="translate(-133.53 -144.65)"/><path class="cls-13" d="M294.5,321.83C374.16,294,435.37,291.46,481,301" transform="translate(-133.53 -144.65)"/><path class="cls-13" d="M536.94,321.83A184.23,184.23,0,0,0,486,302.06" transform="translate(-133.53 -144.65)"/><line class="cls-13" x1="403.41" y1="182.1" x2="225.92" y2="182.1"/><line class="cls-13" x1="169.92" y1="182.1" x2="160.91" y2="182.1"/></g><line class="cls-14" x1="253.54" y1="250.46" x2="253.54" y2="250.45"/><path class="cls-15" d="M401.22,418.92h-2a3,3,0,0,1,0-6h2" transform="translate(-133.53 -144.65)"/><line class="cls-15" x1="278.69" y1="269.27" x2="267.69" y2="269.27"/><line class="cls-15" x1="278.86" y1="273.27" x2="267.69" y2="273.27"/><line class="cls-15" x1="260.39" y1="279.02" x2="250.39" y2="279.02"/><line class="cls-15" x1="246.89" y1="279.02" x2="245.39" y2="279.02"/><line class="cls-15" x1="258.39" y1="275.02" x2="255.39" y2="275.02"/><line class="cls-15" x1="260.39" y1="263.52" x2="253.89" y2="263.52"/><path class="cls-15" d="M311,371.41a15.49,15.49,0,0,0,5.13,12.29,15.66,15.66,0,0,0,8.25,3.75" transform="translate(-133.53 -144.65)"/><path class="cls-15" d="M315.34,356.51a36,36,0,0,0-4,11.35" transform="translate(-133.53 -144.65)"/><path class="cls-15" d="M334.69,386.77a78.08,78.08,0,0,0,18-7.32" transform="translate(-133.53 -144.65)"/><path class="cls-15" d="M330.36,387.52c-.55.06-1.1.1-1.64.13" transform="translate(-133.53 -144.65)"/><path class="cls-15" d="M312,275.9a14.54,14.54,0,0,1,4.09-5.93c8.49-7.51,22.18-3.41,36.46,4.16" transform="translate(-133.53 -144.65)"/><path class="cls-15" d="M311.53,287a36.93,36.93,0,0,0,3.75,10" transform="translate(-133.53 -144.65)"/><path class="cls-15" d="M311,282.75a20.88,20.88,0,0,1,.05-2.24" transform="translate(-133.53 -144.65)"/><line class="cls-15" x1="408.41" y1="205.75" x2="408.41" y2="198.6"/><line class="cls-15" x1="408.41" y1="189.6" x2="408.41" y2="158.45"/><line class="cls-15" x1="408.41" y1="194.1" x2="408.41" y2="194.09"/><path class="cls-14" d="M403.41,157.1h0a10,10,0,0,1,10,10v30a10,10,0,0,1-10,10h0a0,0,0,0,1,0,0v-50A0,0,0,0,1,403.41,157.1Z"/><path class="cls-14" d="M546.94,313.75a13,13,0,0,1,0,26" transform="translate(-133.53 -144.65)"/><path class="cls-14" d="M161,169.1h0a0,0,0,0,1,0,0v26a0,0,0,0,1,0,0h0a8,8,0,0,1-8-8v-10A8,8,0,0,1,161,169.1Z"/><rect class="cls-14" x="169.92" y="177.1" width="56" height="10"/><path class="cls-14" d="M311.28,353.57c-6.12,8.6-13.19,26.6-1.69,36.76,11.21,9.91,30,2.93,48.93-7.88" transform="translate(-133.53 -144.65)"/><path class="cls-14" d="M311.25,300c-6.1-8.61-13.14-26.58-1.66-36.72,11.21-9.91,29.94-2.95,48.87,7.84" transform="translate(-133.53 -144.65)"/><line class="cls-14" x1="267.69" y1="262.27" x2="267.69" y2="280.27"/><path class="cls-14" d="M412.22,403.47v12.78a8,8,0,0,0,8,8h29a16,16,0,0,0,12-5.42,15.15,15.15,0,0,0,2.13-3.05l3.46-6.49" transform="translate(-133.53 -144.65)"/><path class="cls-14" d="M412.22,414.12" transform="translate(-133.53 -144.65)"/><path class="cls-14" d="M401.22,420.12" transform="translate(-133.53 -144.65)"/><path class="cls-15" d="M462.63,416.92H440.25a4,4,0,0,1-4-4v-4.77" transform="translate(-133.53 -144.65)"/><path class="cls-16" d="M294.44,313.75c23.95-22.58,96.51-70,163.56-70a83,83,0,0,1,79.17,58" transform="translate(-133.53 -144.65)"/><path class="cls-16" d="M294.44,339.75c23.95,22.58,96.51,70,163.56,70a83,83,0,0,0,79.17-58" transform="translate(-133.53 -144.65)"/></g></svg>