<svg xmlns="http://www.w3.org/2000/svg" data-name="Layer 1" viewBox="0 0 512 512"><path fill="#a2e62e" d="M419,93q-3.54-3.54-7.21-6.9A230.56,230.56,0,0,0,25.44,256a231.66,231.66,0,0,0,7.85,60A229.06,229.06,0,0,0,93,419q5.44,5.45,11.17,10.47h61.41a196.23,196.23,0,0,1-47.84-35.22,194.21,194.21,0,0,1-52.13-93.43h0A196.57,196.57,0,0,1,60.44,256a195.6,195.6,0,0,1,316-154.15,198,198,0,0,1,17.89,15.87,194.14,194.14,0,0,1,55.14,109.14H456a48.21,48.21,0,0,0,27.51-8.56A228.88,228.88,0,0,0,419,93Z"/><path fill="#fe646f" d="M369.53,142.47a163.34,163.34,0,0,0-12.48-11.27A160.58,160.58,0,0,0,95.44,255.55V256a160.64,160.64,0,0,0,131,157.87,63,63,0,0,0,19.76-32.68A125.56,125.56,0,0,1,130.44,256q0-4.74.35-9.44a125.6,125.6,0,0,1,196.5-93.95,126.3,126.3,0,0,1,50.89,74.25h35.76A159.4,159.4,0,0,0,369.53,142.47Z"/><path fill="#fedf30" d="M394.28,117.72a198,198,0,0,0-17.89-15.87A195.59,195.59,0,0,0,60.44,256a196.57,196.57,0,0,0,5.14,44.84,194.2,194.2,0,0,0,52.13,93.44,196.23,196.23,0,0,0,47.84,35.22h19.37a62.79,62.79,0,0,0,41.55-15.63A160.64,160.64,0,0,1,95.44,256v-.45A160.58,160.58,0,0,1,357.05,131.2a163.34,163.34,0,0,1,12.48,11.27,159.4,159.4,0,0,1,44.41,84.39h35.48A194.14,194.14,0,0,0,394.28,117.72Z"/><path fill="#60b7ff" d="M248,366.46a63,63,0,0,1-63,63H71.08a63,63,0,0,1-5.84-125.79c.09-1,.2-1.91.34-2.86h0A63,63,0,0,1,128,246.5q1.41,0,2.79.06a63,63,0,0,1,60,57.15A63,63,0,0,1,248,366.46Z"/><path fill="#26a6fe" d="M190.76,303.71a63,63,0,0,0-60-57.15q-1.38-.06-2.79-.06a62.78,62.78,0,0,0-32.56,9.05,64.15,64.15,0,0,0-9.56,7.12A63.77,63.77,0,0,1,98,261.5q1.41,0,2.79.06a63,63,0,0,1,60,57.15,63,63,0,0,1,36.31,109.61,63,63,0,0,0-6.31-124.61Z"/><path fill="#60b7ff" d="M504.5,178.35A48.51,48.51,0,0,1,456,226.86H368.4a48.5,48.5,0,0,1-4.48-96.79,48.46,48.46,0,0,1,47.9-44h.38a48.51,48.51,0,0,1,48.29,44A48.49,48.49,0,0,1,504.5,178.35Z"/><path fill="#26a6fe" d="M460.49,130.07a48.51,48.51,0,0,0-48.29-44h-.38a48.16,48.16,0,0,0-27.38,8.74,48.5,48.5,0,0,1,46.05,43.95,48.49,48.49,0,0,1,23.2,88.1H456a48.5,48.5,0,0,0,4.49-96.79Z"/><path fill="#7a6d79" d="M336.35 401h0a7.5 7.5 0 0 1-7.36-6.09 18.58 18.58 0 0 0-16-15 7.5 7.5 0 1 1 1.9-14.88 34 34 0 0 1 19.39 9.41c.74.73 1.42 1.47 2.05 2.21.65-.77 1.33-1.5 2-2.21a34 34 0 0 1 19.4-9.41 7.5 7.5 0 0 1 1.89 14.88 18.58 18.58 0 0 0-16 15A7.5 7.5 0 0 1 336.35 401zM442.55 464.51h0a7.5 7.5 0 0 1-7.36-6.09 23.19 23.19 0 0 0-19.91-18.69 7.5 7.5 0 0 1 1.9-14.88 38.59 38.59 0 0 1 22 10.7 35.69 35.69 0 0 1 3.33 3.75 38.11 38.11 0 0 1 3.33-3.75 38.64 38.64 0 0 1 22-10.7 7.5 7.5 0 1 1 1.91 14.88 23.19 23.19 0 0 0-19.91 18.69A7.51 7.51 0 0 1 442.55 464.51zM427.55 344.51h0a7.5 7.5 0 0 1-7.36-6.09 23.19 23.19 0 0 0-19.91-18.69 7.5 7.5 0 0 1 1.9-14.88 38.59 38.59 0 0 1 22 10.7 35.69 35.69 0 0 1 3.33 3.75 38.11 38.11 0 0 1 3.33-3.75 38.64 38.64 0 0 1 22-10.7 7.5 7.5 0 1 1 1.91 14.88 23.19 23.19 0 0 0-19.91 18.69A7.51 7.51 0 0 1 427.55 344.51z"/></svg>