<svg xmlns="http://www.w3.org/2000/svg" width="32" height="32" viewBox="0 0 32 32"><g transform="translate(0 -1020.362)"><path fill="#8fc961" d="m 10.5,1046.8622 a 1,1 0 0 1 -1,1 1,1 0 0 1 -1,-1 1,1 0 0 1 1,-1 1,1 0 0 1 1,1 z"/><path fill="#b0c4d8" d="m 22.5,1027.8622 a 1,1 0 0 1 -1,1 1,1 0 0 1 -1,-1 1,1 0 0 1 1,-1 1,1 0 0 1 1,1 z"/><path fill="#015e85" d="m 22.493544,1041.6355 c -1.341628,-2.3424 -3.821059,-3.7854 -6.504315,-3.7854 -2.683256,0 -5.162688,1.443 -6.5043159,3.7854 l -2.0013281,-1.1647 c 1.7544372,-3.0632 4.996769,-4.9501 8.505644,-4.9501 3.508874,0 6.751206,1.8869 8.505643,4.9501"/><path fill="#ffca5c" d="m 26.496199,1039.306 c -2.167245,-3.7838 -6.17248,-6.1148 -10.50697,-6.1148 -4.334492,0 -8.339727,2.331 -10.5069721,6.1148 l 2.0013281,1.1648 c 1.7544372,-3.0632 4.996769,-4.9501 8.505644,-4.9501 3.508874,0 6.751206,1.8869 8.505643,4.9501"/><path fill="#f04b4d" d="m 28.497527,1038.1413 c -2.580054,-4.5046 -7.348191,-7.2795 -12.508299,-7.2795 -5.160109,0 -9.9282449,2.7749 -12.5082992,7.2795 l 2.0013281,1.1647 c 2.1672451,-3.7838 6.1724801,-6.1148 10.5069721,-6.1148 4.33449,0 8.339725,2.331 10.50697,6.1148"/><path style="line-height:normal;text-indent:0;text-align:start;text-decoration-line:none;text-decoration-style:solid;text-decoration-color:#000;text-transform:none;block-progression:tb;isolation:auto;mix-blend-mode:normal" d="m 15.988281,1030.3613 c -5.339377,0 -10.2733376,2.873 -12.941406,7.5313 a 0.50005,0.50005 0 1 0 0.8671875,0.498 c 2.4920099,-4.3509 7.0933545,-7.0293 12.0742185,-7.0293 4.980864,0 9.584162,2.6784 12.076172,7.0293 a 0.50005,0.50005 0 1 0 0.867188,-0.498 c -2.668069,-4.6583 -7.603982,-7.5313 -12.94336,-7.5313 z" color="#000" font-family="sans-serif" font-weight="400" overflow="visible" white-space="normal"/><path style="line-height:normal;text-indent:0;text-align:start;text-decoration-line:none;text-decoration-style:solid;text-decoration-color:#000;text-transform:none;block-progression:tb;isolation:auto;mix-blend-mode:normal" d="m 15.988281,1032.6914 c -4.513744,0 -8.684174,2.4277 -10.9394529,6.3652 a 0.50005,0.50005 0 1 0 0.8671875,0.4981 c 2.0792191,-3.6302 5.9170334,-5.8633 10.0722654,-5.8633 4.155232,0 7.995,2.2331 10.074219,5.8633 a 0.50005,0.50005 0 1 0 0.867188,-0.4981 c -2.255279,-3.9375 -6.427663,-6.3652 -10.941407,-6.3652 z" color="#000" font-family="sans-serif" font-weight="400" overflow="visible" white-space="normal"/><path style="line-height:normal;text-indent:0;text-align:start;text-decoration-line:none;text-decoration-style:solid;text-decoration-color:#000;text-transform:none;block-progression:tb;isolation:auto;mix-blend-mode:normal" d="m 15.988281,1035.0215 c -3.688132,0 -7.0969897,1.9843 -8.9394529,5.2012 a 0.50038005,0.50038005 0 0 0 0.8691407,0.4961 c 1.6664039,-2.9095 4.7406922,-4.6973 8.0703122,-4.6973 3.32962,0 6.405862,1.7878 8.072266,4.6973 a 0.50038018,0.50038018 0 0 0 0.869141,-0.4961 c -1.842464,-3.2169 -5.253274,-5.2012 -8.941407,-5.2012 z" color="#000" font-family="sans-serif" font-weight="400" overflow="visible" white-space="normal"/><path style="line-height:normal;text-indent:0;text-align:start;text-decoration-line:none;text-decoration-style:solid;text-decoration-color:#000;text-transform:none;block-progression:tb;isolation:auto;mix-blend-mode:normal" d="m 15.988281,1037.3496 c -2.862499,0 -5.507825,1.5411 -6.9374998,4.0371 a 0.50005,0.50005 0 1 0 0.8671876,0.4981 c 1.2536122,-2.1887 3.5663242,-3.5352 6.0703122,-3.5352 2.503989,0 4.818653,1.3465 6.072266,3.5352 a 0.50005,0.50005 0 1 0 0.867187,-0.4981 c -1.429674,-2.496 -4.076953,-4.0371 -6.939453,-4.0371 z" color="#000" font-family="sans-serif" font-weight="400" overflow="visible" white-space="normal"/><path fill-rule="evenodd" style="line-height:normal;text-indent:0;text-align:start;text-decoration-line:none;text-decoration-style:solid;text-decoration-color:#000;text-transform:none;block-progression:tb;isolation:auto;mix-blend-mode:normal" d="m 3.9101562,1042.9375 a 0.50005,0.50005 0 0 0 -0.34375,0.1523 l -1.4140624,1.4141 a 0.50005,0.50005 0 1 0 0.7070312,0.707 l 1.4140625,-1.414 a 0.50005,0.50005 0 0 0 -0.3632813,-0.8594 z" color="#000" font-family="sans-serif" font-weight="400" overflow="visible" white-space="normal"/><path fill-rule="evenodd" style="line-height:normal;text-indent:0;text-align:start;text-decoration-line:none;text-decoration-style:solid;text-decoration-color:#000;text-transform:none;block-progression:tb;isolation:auto;mix-blend-mode:normal" d="M2.5 1042.9375a.50005.50005 0 0 0-.3476562.8594l1.4140624 1.414a.50005.50005 0 1 0 .7070313-.707L2.859375 1043.0898A.50005.50005 0 0 0 2.5 1042.9375zM12.212891 1025.6504a.50005.50005 0 1 0 0 1l2 0a.50005.50005 0 1 0 0-1l-2 0z" color="#000" font-family="sans-serif" font-weight="400" overflow="visible" white-space="normal"/><path fill-rule="evenodd" style="line-height:normal;text-indent:0;text-align:start;text-decoration-line:none;text-decoration-style:solid;text-decoration-color:#000;text-transform:none;block-progression:tb;isolation:auto;mix-blend-mode:normal" d="M13.205078 1024.6426a.50005.50005 0 0 0-.492187.5078l0 2a.50005.50005 0 1 0 1 0l0-2a.50005.50005 0 0 0-.507813-.5078zM24.787109 1046.3613a.50005.50005 0 1 0 0 1l2 0a.50005.50005 0 1 0 0-1l-2 0z" color="#000" font-family="sans-serif" font-weight="400" overflow="visible" white-space="normal"/><path fill-rule="evenodd" style="line-height:normal;text-indent:0;text-align:start;text-decoration-line:none;text-decoration-style:solid;text-decoration-color:#000;text-transform:none;block-progression:tb;isolation:auto;mix-blend-mode:normal" d="m 25.78125,1045.3555 a 0.50005,0.50005 0 0 0 -0.494141,0.5058 l 0,2 a 0.50005,0.50005 0 1 0 1,0 l 0,-2 a 0.50005,0.50005 0 0 0 -0.505859,-0.5058 z" color="#000" font-family="sans-serif" font-weight="400" overflow="visible" white-space="normal"/><path style="line-height:normal;text-indent:0;text-align:start;text-decoration-line:none;text-decoration-style:solid;text-decoration-color:#000;text-transform:none;block-progression:tb;isolation:auto;mix-blend-mode:normal" d="M9.5 1045.3613c-.8225048 0-1.5.6775-1.5 1.5 0 .8225.6774952 1.5 1.5 1.5.822505 0 1.5-.6775 1.5-1.5 0-.8225-.677495-1.5-1.5-1.5zm0 1c.2820647 0 .5.218.5.5 0 .2821-.2179353.5-.5.5-.2820647 0-.5-.2179-.5-.5 0-.282.2179353-.5.5-.5zM21.5 1026.3613c-.822505 0-1.5.6775-1.5 1.5 0 .8225.677495 1.5 1.5 1.5.822505 0 1.5-.6775 1.5-1.5 0-.8225-.677495-1.5-1.5-1.5zm0 1c.282065 0 .5.218.5.5 0 .2821-.217935.5-.5.5-.282065 0-.5-.2179-.5-.5 0-.282.217935-.5.5-.5z" color="#000" font-family="sans-serif" font-weight="400" overflow="visible" white-space="normal"/><path d="M3 1030.8622a.5.5 0 0 1-.5.5.5.5 0 0 1-.5-.5.5.5 0 0 1 .5-.5.5.5 0 0 1 .5.5zM6 1048.8622a.5.5 0 0 1-.5.5.5.5 0 0 1-.5-.5.5.5 0 0 1 .5-.5.5.5 0 0 1 .5.5zM30 1043.8622a.5.5 0 0 1-.5.5.5.5 0 0 1-.5-.5.5.5 0 0 1 .5-.5.5.5 0 0 1 .5.5zM19 1023.8622a.5.5 0 0 1-.5.5.5.5 0 0 1-.5-.5.5.5 0 0 1 .5-.5.5.5 0 0 1 .5.5zM20 1042.8622a.5.5 0 0 1-.5.5.5.5 0 0 1-.5-.5.5.5 0 0 1 .5-.5.5.5 0 0 1 .5.5z"/></g></svg>