<svg xmlns="http://www.w3.org/2000/svg" viewBox="0 0 64 64"><path fill="#5bcbfa" d="M44,45H20a8.262,8.262,0,0,0-1,.06A8,8,0,0,0,12,53v8H52V53a8,8,0,0,0-7-7.94Z"/><path fill="#ec455a" d="M44,45H20a8.262,8.262,0,0,0-1,.06V61H45V45.06Z"/><polygon fill="#fff" points="23 45 25 53 30 49 29 45 23 45"/><polygon fill="#fff" points="41 45 39 53 34 49 35 45 41 45"/><polygon fill="#ffcbbe" points="38 45 32 51 26 45 27 33 37 33 38 45"/><path fill="#3e3d42" d="M48,23H16V15A12,12,0,0,1,28,3h8A12,12,0,0,1,48,15Z"/><path fill="#ffcbbe" d="M17,19h2a0,0,0,0,1,0,0v7a0,0,0,0,1,0,0H17a2,2,0,0,1-2-2V21A2,2,0,0,1,17,19Z"/><path fill="#ffcbbe" d="M47,19h2a0,0,0,0,1,0,0v7a0,0,0,0,1,0,0H47a2,2,0,0,1-2-2V21A2,2,0,0,1,47,19Z" transform="rotate(-180 47 22.5)"/><path fill="#ffddce" d="M32,41h0A13,13,0,0,1,19,28V18l3-5,2.688-1.152a14.046,14.046,0,0,1,9.488-.557c3.6,1.056,7.808,2.447,8.424,2.909L45,19v9A13,13,0,0,1,32,41Z"/><path fill="#b4e6ee" d="M41.65,31.09l1.82,3.04a13.01,13.01,0,0,1-22.94,0l1.82-3.04a4.038,4.038,0,0,1,1.81-1.61l5.4-2.4a6.011,6.011,0,0,1,4.88,0l5.4,2.4A4.038,4.038,0,0,1,41.65,31.09Z"/><path d="M45.12,44.07A8.317,8.317,0,0,0,44,44H38.92l-.31-3.67A13.986,13.986,0,0,0,46,28V27h1a3.009,3.009,0,0,0,3-3V21a2.986,2.986,0,0,0-1-2.22V15A13.012,13.012,0,0,0,36,2H28A13.012,13.012,0,0,0,15,15v3.78A2.986,2.986,0,0,0,14,21v3a3.009,3.009,0,0,0,3,3h1v1a13.986,13.986,0,0,0,7.39,12.33L25.08,44H20a8.317,8.317,0,0,0-1.12.07A9,9,0,0,0,11,53v8a1,1,0,0,0,1,1H52a1,1,0,0,0,1-1V53A9,9,0,0,0,45.12,44.07ZM18,60H13V53a7.005,7.005,0,0,1,5-6.71ZM39.72,46l-1.31,5.25L35.5,48.92,38.41,46ZM32,49.59l-4.96-4.97.28-3.44a13.765,13.765,0,0,0,9.36,0l.28,3.44ZM48,21v3a1,1,0,0,1-1,1H46V20h1A1,1,0,0,1,48,21ZM18,25H17a1,1,0,0,1-1-1V21a1,1,0,0,1,1-1h1Zm0-7H17V15A11.007,11.007,0,0,1,28,4h8A11.007,11.007,0,0,1,47,15v3H45.62l-2.13-4.25a.991.991,0,0,0-.29-.35c-1.07-.8-7.96-2.84-8.74-3.07a15.13,15.13,0,0,0-10.17.6l-2.68,1.15a.989.989,0,0,0-.47.41l-3,5A1,1,0,0,0,18,18Zm2.68,13.94A11.989,11.989,0,0,1,20,28V18.28l2.69-4.49,2.39-1.02a13.106,13.106,0,0,1,8.82-.52,78.721,78.721,0,0,1,7.94,2.66L44,19.24V28a11.989,11.989,0,0,1-.68,3.94l-.81-1.36a5.006,5.006,0,0,0-2.26-2.01l-5.4-2.4a6.965,6.965,0,0,0-5.69,0l-5.41,2.4a5.006,5.006,0,0,0-2.26,2.01Zm1.02,2.19,1.51-2.53a2.992,2.992,0,0,1,1.36-1.2l5.4-2.4a4.954,4.954,0,0,1,4.06,0l5.41,2.4a3.018,3.018,0,0,1,1.35,1.2l1.51,2.53a11.972,11.972,0,0,1-20.6,0ZM25.59,46l2.91,2.92-2.91,2.33L24.28,46ZM44,60H20V46h2.22l1.81,7.24a1.01,1.01,0,0,0,.65.71A1.127,1.127,0,0,0,25,54a1.02,1.02,0,0,0,.62-.22l4.31-3.44,1.36,1.37a1.014,1.014,0,0,0,1.42,0l1.36-1.37,4.31,3.44A1,1,0,0,0,39,54a1.127,1.127,0,0,0,.32-.05,1.01,1.01,0,0,0,.65-.71L41.78,46H44Zm7,0H46V46.29A7.005,7.005,0,0,1,51,53Z"/><path d="M26 21a1 1 0 0 0-1 1v2a1 1 0 0 0 2 0V22A1 1 0 0 0 26 21zM38 21a1 1 0 0 0-1 1v2a1 1 0 0 0 2 0V22A1 1 0 0 0 38 21z"/></svg>