<svg xmlns="http://www.w3.org/2000/svg" enable-background="new 0 0 512 512" viewBox="0 0 512 512"><path fill="#86d4ef" d="M256.8 93.8c-89.5 0-162 72.5-162 162 0 89.5 72.5 162 162 162 89.5 0 162-72.5 162-162C418.8 166.3 346.3 93.8 256.8 93.8zM199.8 341.5c-28.8 0-52.2-23.4-52.2-52.2 0-28.8 23.4-52.2 52.2-52.2s52.2 23.4 52.2 52.2C252 318.1 228.7 341.5 199.8 341.5zM226.6 186.6c0-19 15.4-34.5 34.5-34.5s34.5 15.4 34.5 34.5-15.4 34.5-34.5 34.5S226.6 205.6 226.6 186.6zM322.9 313.8c-22.5 0-40.7-18.2-40.7-40.7s18.2-40.7 40.7-40.7c22.5 0 40.7 18.2 40.7 40.7S345.3 313.8 322.9 313.8zM256.8 9.5c-14.2 0-25.8 11.6-25.8 25.8s11.6 25.8 25.8 25.8c14.2 0 25.8-11.6 25.8-25.8S271 9.5 256.8 9.5zM256.8 48.8c-7.4 0-13.5-6-13.5-13.5s6-13.5 13.5-13.5c7.4 0 13.5 6 13.5 13.5S264.2 48.8 256.8 48.8zM256.8 450.4c-14.2 0-25.8 11.6-25.8 25.8 0 14.2 11.6 25.8 25.8 25.8 14.2 0 25.8-11.6 25.8-25.8C282.6 462 271 450.4 256.8 450.4zM256.8 489.6c-7.4 0-13.5-6-13.5-13.5 0-7.4 6-13.5 13.5-13.5 7.4 0 13.5 6 13.5 13.5C270.3 483.6 264.2 489.6 256.8 489.6zM477.2 230c-14.2 0-25.8 11.6-25.8 25.8s11.6 25.8 25.8 25.8c14.2 0 25.8-11.6 25.8-25.8S491.4 230 477.2 230zM477.2 269.2c-7.4 0-13.5-6-13.5-13.5 0-7.4 6-13.5 13.5-13.5 7.4 0 13.5 6 13.5 13.5C490.7 263.2 484.6 269.2 477.2 269.2zM36.4 230c-14.2 0-25.8 11.6-25.8 25.8s11.6 25.8 25.8 25.8 25.8-11.6 25.8-25.8S50.6 230 36.4 230zM36.4 269.2c-7.4 0-13.5-6-13.5-13.5 0-7.4 6-13.5 13.5-13.5s13.5 6 13.5 13.5C49.8 263.2 43.8 269.2 36.4 269.2zM396.2 395.2c-10.1 10.1-10.1 26.4 0 36.5v0c5 5 11.6 7.5 18.2 7.5 6.6 0 13.2-2.5 18.2-7.5 10.1-10.1 10.1-26.4 0-36.5C422.6 385.1 406.3 385.1 396.2 395.2zM424 422.9c-5.3 5.2-13.8 5.3-19.1 0-5.3-5.3-5.3-13.8 0-19 5.3-5.3 13.8-5.3 19.1 0C429.2 409.1 429.2 417.7 424 422.9zM80.9 79.9c-10.1 10.1-10.1 26.4 0 36.5 5 5 11.6 7.5 18.2 7.5 6.6 0 13.2-2.5 18.2-7.5 4.9-4.9 7.6-11.3 7.6-18.2 0-6.9-2.7-13.4-7.6-18.2C107.3 69.8 90.9 69.8 80.9 79.9zM108.6 107.6c-5.2 5.2-13.8 5.3-19 0-5.3-5.3-5.3-13.8 0-19.1 2.6-2.6 6.1-3.9 9.5-3.9 3.5 0 6.9 1.3 9.5 3.9v0c2.5 2.5 3.9 5.9 3.9 9.5C112.6 101.7 111.2 105.1 108.6 107.6zM396.2 79.9c-10.1 10.1-10.1 26.4 0 36.5 5 5 11.6 7.5 18.2 7.5 6.6 0 13.2-2.5 18.2-7.5 10.1-10.1 10.1-26.4 0-36.5C422.6 69.8 406.3 69.8 396.2 79.9zM424 107.6c-5.3 5.2-13.8 5.2-19.1 0-5.3-5.3-5.3-13.8 0-19 2.6-2.6 6.1-3.9 9.5-3.9 3.5 0 6.9 1.3 9.5 3.9C429.2 93.8 429.2 102.4 424 107.6zM80.9 395.2c-10.1 10.1-10.1 26.4 0 36.5 5 5 11.6 7.5 18.2 7.5 6.6 0 13.2-2.5 18.2-7.5 4.9-4.9 7.6-11.3 7.6-18.2 0-6.9-2.7-13.4-7.6-18.2C107.3 385.1 90.9 385.1 80.9 395.2zM108.6 422.9c-5.2 5.3-13.8 5.3-19 0-5.3-5.3-5.3-13.8 0-19.1 2.6-2.6 6.1-3.9 9.5-3.9 3.5 0 6.9 1.3 9.5 3.9 2.5 2.5 3.9 5.9 3.9 9.5C112.6 417 111.2 420.4 108.6 422.9z"/><g><path fill="#231f20" d="M182.2,392.6c-50.1-27.4-81.3-79.8-81.3-136.9c0-85.9,69.8-155.8,155.7-155.8c0.1,0,0.1,0,0.1,0
		c0,0,0.1,0,0.1,0c55.5,0.1,107.2,30,135,78.2c1.7,2.9,5.5,4,8.4,2.3c2.9-1.7,4-5.5,2.3-8.4c-6.4-11-13.9-21.1-22.4-30.3l7.3-7.3
		c2.4-2.4,2.4-6.3,0-8.7c-2.4-2.4-6.3-2.4-8.7,0l-7.2,7.2c-29.3-27.3-67.7-43.6-108.5-45.1V77.8c0-3.4-2.8-6.2-6.2-6.2
		c-3.4,0-6.2,2.8-6.2,6.2v10c-41.9,1.5-79.9,18.4-108.5,45.2l-7.2-7.2c-2.4-2.4-6.3-2.4-8.7,0c-2.4,2.4-2.4,6.3,0,8.7l7.2,7.3
		c-26.6,28.7-43.3,66.7-44.6,108.5H78.2c-3.4,0-6.2,2.8-6.2,6.2s2.8,6.2,6.2,6.2h10.7c1.6,40.8,17.9,78.9,45.1,108l-7.8,7.8
		c-2.4,2.4-2.4,6.3,0,8.7c1.2,1.2,2.8,1.8,4.4,1.8c1.6,0,3.1-0.6,4.4-1.8l7.8-7.8c10.1,9.3,21.3,17.5,33.7,24.3
		c0.9,0.5,1.9,0.8,2.9,0.8c2.2,0,4.3-1.2,5.4-3.2C186.3,398,185.2,394.3,182.2,392.6z"/><path fill="#231f20" d="M231.5 167.8c-3.1-1.3-6.7.2-8 3.3-2 4.9-3.1 10.1-3.1 15.5 0 22.4 18.2 40.6 40.6 40.6 22.4 0 40.6-18.2 40.6-40.6s-18.2-40.6-40.6-40.6c-6.2 0-12.2 1.4-17.8 4.1-3.1 1.5-4.3 5.2-2.8 8.2 1.5 3.1 5.2 4.3 8.2 2.8 3.9-1.9 8-2.8 12.4-2.8 15.6 0 28.3 12.7 28.3 28.3 0 15.6-12.7 28.3-28.3 28.3s-28.3-12.7-28.3-28.3c0-3.7.7-7.4 2.1-10.8C236.2 172.7 234.7 169.1 231.5 167.8zM258.2 289.3c0-7.8-1.5-15.4-4.5-22.5-1.3-3.1-4.9-4.6-8.1-3.3-3.1 1.3-4.6 4.9-3.3 8.1 2.4 5.6 3.6 11.6 3.6 17.8 0 25.4-20.7 46.1-46.1 46.1s-46.1-20.7-46.1-46.1 20.7-46.1 46.1-46.1c5.9 0 11.6 1.1 17.1 3.3 3.2 1.2 6.7-.3 8-3.4 1.3-3.2-.3-6.7-3.4-8-6.9-2.8-14.2-4.1-21.6-4.1-32.2 0-58.4 26.2-58.4 58.4s26.2 58.4 58.4 58.4S258.2 321.5 258.2 289.3zM359 292.8c3.2 1.2 6.7-.5 7.9-3.7 1.9-5.1 2.8-10.5 2.8-16 0-25.8-21-46.8-46.8-46.8s-46.8 21-46.8 46.8 21 46.8 46.8 46.8c7.4 0 14.8-1.8 21.3-5.1 3-1.6 4.2-5.3 2.7-8.3-1.6-3-5.3-4.2-8.3-2.7-4.9 2.5-10.2 3.8-15.7 3.8-19 0-34.5-15.5-34.5-34.5s15.5-34.5 34.5-34.5 34.5 15.5 34.5 34.5c0 4.1-.7 8-2.1 11.8C354.2 288.1 355.8 291.6 359 292.8z"/><path fill="#231f20" d="M435.4,250.2h-10.6c-0.4-13.2-2.3-26.3-5.8-38.9c-0.9-3.3-4.3-5.2-7.6-4.3c-3.3,0.9-5.2,4.3-4.3,7.6
		c3.7,13.4,5.5,27.2,5.5,41.2c0,85.9-69.9,155.8-155.8,155.8c-9.8,0-19.5-0.9-29.1-2.7c-3.3-0.6-6.6,1.6-7.2,4.9
		c-0.6,3.3,1.6,6.6,4.9,7.2c8.3,1.6,16.7,2.5,25.2,2.8v11.2c0,3.4,2.8,6.2,6.2,6.2c3.4,0,6.2-2.8,6.2-6.2v-11.2
		c41.6-1.5,79.3-18.2,107.9-44.6l7.8,7.8c1.2,1.2,2.8,1.8,4.4,1.8c1.6,0,3.1-0.6,4.4-1.8c2.4-2.4,2.4-6.3,0-8.7l-7.8-7.8
		c26.7-28.5,43.5-66.3,45.2-107.9h10.6c3.4,0,6.2-2.8,6.2-6.2S438.8,250.2,435.4,250.2z"/></g></svg>