<svg xmlns="http://www.w3.org/2000/svg" data-name="Layer 1" viewBox="0 0 512 512"><path fill="#fe9738" d="M302.81,10V124.44A10.18,10.18,0,0,0,313,134.62h10.55A10.17,10.17,0,0,1,330.73,152L263.2,219.53a10.19,10.19,0,0,1-14.4,0L181.27,152a10.17,10.17,0,0,1,7.19-17.37H199a10.18,10.18,0,0,0,10.18-10.18V10a10,10,0,0,1,10-10h73.62A10,10,0,0,1,302.81,10Z"/><path fill="#fe860a" d="M323.54,134.62H313a10.18,10.18,0,0,1-10.18-10.18V10a10,10,0,0,0-10-10h-45a10,10,0,0,1,10,10V124.44A10.18,10.18,0,0,0,268,134.62h10.55A10.17,10.17,0,0,1,285.73,152L233.5,204.23l15.3,15.3a10.19,10.19,0,0,0,14.4,0L330.73,152A10.17,10.17,0,0,0,323.54,134.62Z"/><path fill="#fed402" d="M302.81,502V387.56A10.18,10.18,0,0,1,313,377.38h10.55A10.17,10.17,0,0,0,330.73,360L263.2,292.47a10.19,10.19,0,0,0-14.4,0L181.27,360a10.17,10.17,0,0,0,7.19,17.37H199a10.18,10.18,0,0,1,10.18,10.18V502a10,10,0,0,0,10,10h73.62A10,10,0,0,0,302.81,502Z"/><path fill="#fac600" d="M330.73,360,263.2,292.47a10.19,10.19,0,0,0-14.4,0l-15.3,15.3L285.73,360a10.17,10.17,0,0,1-7.19,17.37H268a10.18,10.18,0,0,0-10.18,10.18V502a10,10,0,0,1-10,10h45a10,10,0,0,0,10-10V387.56A10.18,10.18,0,0,1,313,377.38h10.55A10.17,10.17,0,0,0,330.73,360Z"/><path fill="#09a76d" d="M10,209.19H124.44A10.18,10.18,0,0,0,134.62,199V188.46A10.17,10.17,0,0,1,152,181.27l67.54,67.53a10.19,10.19,0,0,1,0,14.4L152,330.73a10.17,10.17,0,0,1-17.37-7.19V313a10.18,10.18,0,0,0-10.18-10.18H10a10,10,0,0,1-10-10V219.19A10,10,0,0,1,10,209.19Z"/><path fill="#02905d" d="M219.53,248.8,152,181.27a10.17,10.17,0,0,0-17.37,7.19v5.44l54.91,54.9a10.19,10.19,0,0,1,0,14.4l-54.91,54.9v5.44A10.17,10.17,0,0,0,152,330.73l67.54-67.53A10.19,10.19,0,0,0,219.53,248.8Z"/><path fill="#fd4755" d="M502,209.19H387.56A10.18,10.18,0,0,1,377.38,199V188.46A10.17,10.17,0,0,0,360,181.27L292.47,248.8a10.19,10.19,0,0,0,0,14.4L360,330.73a10.17,10.17,0,0,0,17.37-7.19V313a10.18,10.18,0,0,1,10.18-10.18H502a10,10,0,0,0,10-10V219.19A10,10,0,0,0,502,209.19Z"/><path fill="#fb2b3a" d="M502,209.19H472a10,10,0,0,1,10,10v73.62a10,10,0,0,1-10,10h30a10,10,0,0,0,10-10V219.19A10,10,0,0,0,502,209.19Z"/><circle cx="256" cy="256" r="71.78" fill="#26a6fe"/><path fill="#0593fc" d="M256,184.22a72,72,0,0,0-15,1.59,71.77,71.77,0,0,1,0,140.38,71.78,71.78,0,1,0,15-142Z"/><rect width="107" height="46" x="7.5" y="7.5" fill="#fe9738"/><rect width="107" height="46" x="397.5" y="7.5" fill="#fd4755"/><rect width="30" height="46" x="474.5" y="7.5" fill="#fb2b3a"/><rect width="107" height="46" x="7.5" y="398.5" fill="#09a76d"/><rect width="107" height="46" x="397.5" y="398.5" fill="#fed402"/><rect width="30" height="46" x="474.5" y="398.5" fill="#fac600"/><rect width="30" height="46" x="85.01" y="398.5" fill="#02905d"/><rect width="30" height="46" x="85.01" y="7.5" fill="#fe860a"/><path d="M114.5,497H7.5a7.5,7.5,0,0,0,0,15h107a7.5,7.5,0,0,0,0-15Zm0-30H7.5a7.5,7.5,0,0,0,0,15h107a7.5,7.5,0,0,0,0-15ZM7.5,121h107a7.5,7.5,0,0,0,0-15H7.5a7.5,7.5,0,0,0,0,15Zm107,270H7.5A7.5,7.5,0,0,0,0,398.5v46A7.5,7.5,0,0,0,7.5,452h107a7.5,7.5,0,0,0,7.5-7.5v-46A7.5,7.5,0,0,0,114.5,391ZM107,437H15V406h92ZM504.5,0h-107A7.5,7.5,0,0,0,390,7.5v46a7.5,7.5,0,0,0,7.5,7.5h107a7.5,7.5,0,0,0,7.5-7.5V7.5A7.5,7.5,0,0,0,504.5,0ZM497,46H405V15h92ZM7.5,91h107a7.5,7.5,0,0,0,0-15H7.5a7.5,7.5,0,0,0,0,15Zm0-30h107a7.5,7.5,0,0,0,7.5-7.5V7.5A7.5,7.5,0,0,0,114.5,0H7.5A7.5,7.5,0,0,0,0,7.5v46A7.5,7.5,0,0,0,7.5,61ZM15,15h92V46H15ZM504.5,497h-107a7.5,7.5,0,0,0,0,15h107a7.5,7.5,0,0,0,0-15Zm-218-263.5h-56.4a7.5,7.5,0,0,0,0,15h56.4a7.5,7.5,0,1,0,0-15Zm0,30h-56.4a7.5,7.5,0,0,0,0,15h56.4a7.5,7.5,0,1,0,0-15ZM504.5,106h-107a7.5,7.5,0,0,0,0,15h107a7.5,7.5,0,0,0,0-15Zm0,361h-107a7.5,7.5,0,0,0,0,15h107a7.5,7.5,0,0,0,0-15Zm0-76h-107a7.5,7.5,0,0,0-7.5,7.5v46a7.5,7.5,0,0,0,7.5,7.5h107a7.5,7.5,0,0,0,7.5-7.5v-46A7.5,7.5,0,0,0,504.5,391ZM497,437H405V406h92ZM387.56,216.69H504.5a7.5,7.5,0,0,0,0-15H387.56a2.68,2.68,0,0,1-2.68-2.68V188.46A17.67,17.67,0,0,0,354.71,176L320.58,210.1a80,80,0,0,0-18.68-18.68L336,157.29a17.67,17.67,0,0,0-12.49-30.17H313a2.68,2.68,0,0,1-2.68-2.68V7.5a7.5,7.5,0,0,0-15,0V124.44A17.7,17.7,0,0,0,313,142.12h10.55a2.68,2.68,0,0,1,1.89,4.57l-37,37a79,79,0,0,0-64.86,0l-37-37a2.68,2.68,0,0,1,1.89-4.57H199a17.7,17.7,0,0,0,17.68-17.68V7.5a7.5,7.5,0,0,0-15,0V124.44a2.68,2.68,0,0,1-2.68,2.68H188.46A17.67,17.67,0,0,0,176,157.29l34.13,34.13a80,80,0,0,0-18.68,18.68L157.29,176a17.67,17.67,0,0,0-30.17,12.49V199a2.68,2.68,0,0,1-2.68,2.68H7.5a7.5,7.5,0,0,0,0,15H124.44A17.7,17.7,0,0,0,142.12,199V188.46a2.68,2.68,0,0,1,4.57-1.89l37,37a79,79,0,0,0,0,64.86l-37,37a2.68,2.68,0,0,1-4.57-1.89V313a17.7,17.7,0,0,0-17.68-17.68H7.5a7.5,7.5,0,0,0,0,15H124.44a2.68,2.68,0,0,1,2.68,2.68v10.55A17.66,17.66,0,0,0,157.29,336l34.13-34.13a80,80,0,0,0,18.68,18.68L176,354.71a17.67,17.67,0,0,0,12.49,30.17H199a2.68,2.68,0,0,1,2.68,2.68V504.5a7.5,7.5,0,0,0,15,0V387.56A17.7,17.7,0,0,0,199,369.88H188.46a2.68,2.68,0,0,1-1.89-4.57l37-37a79,79,0,0,0,64.86,0l37,37a2.68,2.68,0,0,1-1.89,4.57H313a17.7,17.7,0,0,0-17.68,17.68V504.5a7.5,7.5,0,0,0,15,0V387.56a2.68,2.68,0,0,1,2.68-2.68h10.55A17.67,17.67,0,0,0,336,354.71L301.9,320.58a80,80,0,0,0,18.68-18.68L354.71,336a17.67,17.67,0,0,0,30.17-12.49V313a2.68,2.68,0,0,1,2.68-2.68H504.5a7.5,7.5,0,0,0,0-15H387.56A17.7,17.7,0,0,0,369.88,313v10.55a2.68,2.68,0,0,1-4.57,1.89l-37-37a79,79,0,0,0,0-64.86l37-37a2.68,2.68,0,0,1,4.57,1.89V199A17.7,17.7,0,0,0,387.56,216.69ZM256,320.28A64.28,64.28,0,1,1,320.28,256,64.36,64.36,0,0,1,256,320.28ZM504.5,76h-107a7.5,7.5,0,0,0,0,15h107a7.5,7.5,0,0,0,0-15Z"/></svg>