<svg xmlns="http://www.w3.org/2000/svg" width="512" height="512" enable-background="new 0 0 512 512" viewBox="0 0 512 512"><path fill="#FFF" d="M356.795,422.259c0,28.012-22.708,50.721-50.72,50.721h-100.15c-28.012,0-50.719-22.709-50.719-50.721
				V208.24c0-28.014,22.708-50.72,50.719-50.72h100.15c28.012,0,50.72,22.706,50.72,50.72V422.259z"/><path fill="#1D1D1B" d="M306.075,477.979h-100.15c-30.724,0-55.719-24.996-55.719-55.721V208.24
				c0-30.724,24.996-55.72,55.719-55.72h100.15c30.724,0,55.72,24.996,55.72,55.72v214.019
				C361.795,452.983,336.799,477.979,306.075,477.979z M205.925,162.521c-25.209,0-45.719,20.51-45.719,45.72v214.019
				c0,25.211,20.51,45.721,45.719,45.721h100.15c25.21,0,45.72-20.51,45.72-45.721V208.24c0-25.21-20.51-45.72-45.72-45.72H205.925z
				"/><path fill="#00AFFF" d="M344.881 415.68c0 24.701-20.023 44.725-44.724 44.725h-88.312c-24.701 0-44.724-20.023-44.724-44.725V227.994C210 184 296 255.961 344.881 227.994V415.68zM204.391 157.521V112.27c0-10.591 8.584-19.174 19.173-19.174h64.872c10.589 0 19.173 8.583 19.173 19.174v45.251H204.391z"/><path fill="#1D1D1B" d="M307.609,162.521H204.391c-2.761,0-5-2.238-5-5V112.27c0-13.329,10.844-24.174,24.173-24.174h64.872
				c13.329,0,24.173,10.845,24.173,24.174v45.251C312.609,160.282,310.371,162.521,307.609,162.521z M209.391,152.521h93.218V112.27
				c0-7.815-6.358-14.174-14.173-14.174h-64.872c-7.815,0-14.173,6.358-14.173,14.174V152.521z"/><rect width="60.283" height="54.152" x="225.462" y="38.943" fill="#FFF"/><path fill="#1D1D1B" d="M285.745 98.096h-60.283c-2.761 0-5-2.238-5-5V38.943c0-2.762 2.239-5 5-5h60.283c2.761 0 5 2.238 5 5v54.152C290.745 95.857 288.506 98.096 285.745 98.096zM230.462 88.096h50.283V43.943h-50.283V88.096zM416.77 29.064c-1.129 0-2.153-.771-2.429-1.917-.323-1.342.504-2.692 1.846-3.015 20.504-4.93 34.663-8.295 34.663-8.295 1.344-.316 2.691.512 3.01 1.854.319 1.344-.511 2.691-1.854 3.011-.001 0-14.154 3.363-34.65 8.291C417.16 29.041 416.963 29.064 416.77 29.064zM307.607 56.168c-1.114 0-2.129-.75-2.419-1.879-.343-1.338.462-2.7 1.799-3.044 27.241-6.996 59.493-14.789 90.682-22.327l.415-.1c1.343-.327 2.693.5 3.018 1.843.324 1.342-.501 2.692-1.843 3.017l-.416.101c-31.172 7.533-63.406 15.323-90.612 22.311C308.023 56.142 307.813 56.168 307.607 56.168zM349.152 87.999c-.19 0-.383-.022-.576-.067l-41.541-9.802c-1.344-.317-2.176-1.664-1.859-3.008.317-1.343 1.661-2.17 3.007-1.859l41.541 9.802c1.344.317 2.176 1.664 1.859 3.008C351.312 87.223 350.286 87.999 349.152 87.999zM451.43 112.997c-.196 0-.396-.023-.596-.072l-83.427-20.391c-1.341-.328-2.163-1.681-1.835-3.022.328-1.341 1.677-2.164 3.022-1.835l83.427 20.391c1.341.328 2.163 1.681 1.835 3.022C453.577 112.231 452.555 112.997 451.43 112.997zM374.658 66.624H326c-1.381 0-2.5-1.119-2.5-2.5s1.119-2.5 2.5-2.5h48.658c1.381 0 2.5 1.119 2.5 2.5S376.039 66.624 374.658 66.624zM451.428 66.624h-60.461c-1.381 0-2.5-1.119-2.5-2.5s1.119-2.5 2.5-2.5h60.461c1.381 0 2.5 1.119 2.5 2.5S452.809 66.624 451.428 66.624z"/><g><rect width="25.096" height="287.712" x="243.039" y="160.051" fill="#00AFFF"/><path fill="#1D1D1B" d="M268.135,450.263h-25.096c-1.381,0-2.5-1.119-2.5-2.5V160.051c0-1.381,1.119-2.5,2.5-2.5h25.096
			c1.381,0,2.5,1.119,2.5,2.5v287.712C270.635,449.144,269.516,450.263,268.135,450.263z M245.539,445.263h20.096V162.551h-20.096
			V445.263z"/></g></svg>